<?xml version="1.0" encoding="UTF-8"?>
<svg version="1.1" xmlns="http://www.w3.org/2000/svg" width="960" height="720">
<path d="M0 0 C0.79422363 0.07839111 1.58844727 0.15678223 2.40673828 0.23754883 C7.05933247 0.76148056 11.31122334 1.79658691 15.8125 3.125 C18.43706055 3.61542097 21.05318011 4.07331438 23.6875 4.5 C38.1788134 6.99565564 51.33350737 10.38805577 64.83300781 16.28320312 C67.83116998 17.55819858 70.8831252 18.6802146 73.9375 19.8125 C78.55282726 21.56551969 82.60828533 23.55099102 86.8125 26.125 C87.76125 26.599375 88.71 27.07375 89.6875 27.5625 C98.16706559 31.8022828 105.97176908 36.8026145 113.8125 42.125 C114.92238281 42.82496094 116.03226563 43.52492187 117.17578125 44.24609375 C118.04589844 44.86613281 118.91601562 45.48617187 119.8125 46.125 C119.8125 46.785 119.8125 47.445 119.8125 48.125 C120.5034375 48.34414062 121.194375 48.56328125 121.90625 48.7890625 C125.60497028 50.48928069 128.27740922 52.82404989 131.3125 55.5 C132.42657204 56.46673537 133.54114799 57.43289035 134.65625 58.3984375 C135.18605469 58.86217773 135.71585938 59.32591797 136.26171875 59.80371094 C137.70712674 61.03522039 139.21137995 62.19672254 140.71875 63.3515625 C141.4096875 63.93679687 142.100625 64.52203125 142.8125 65.125 C142.8125 65.785 142.8125 66.445 142.8125 67.125 C143.38613281 67.37378906 143.95976563 67.62257813 144.55078125 67.87890625 C153.26474701 72.67986494 162.79376125 84.09861821 166.8125 93.125 C167.4725 93.125 168.1325 93.125 168.8125 93.125 C169.77654235 94.50220336 170.72935665 95.8884257 171.62890625 97.30859375 C172.84314301 99.1720264 174.14714926 100.92242328 175.5 102.6875 C183.48266872 113.26352303 190.6547091 123.87524661 195.8125 136.125 C196.6151897 137.75486824 197.42852363 139.37951926 198.25 141 C202.42701314 149.32916311 205.7415138 157.61689464 208.61889648 166.47851562 C208.85938721 167.21908203 209.09987793 167.95964844 209.34765625 168.72265625 C209.58750244 169.46201416 209.82734863 170.20137207 210.07446289 170.96313477 C210.7761148 173.01842012 211.56323421 175.01747084 212.375 177.03125 C214.16672169 181.76323292 214.96387769 186.5786536 215.75 191.5625 C215.9140332 192.58601562 216.07806641 193.60953125 216.24707031 194.6640625 C220.8356708 224.09379616 223.04243924 251.89074876 220.0625 281.625 C219.98427002 282.42602142 219.90604004 283.22704285 219.82543945 284.05233765 C217.74713909 304.84094819 212.59763921 324.86359937 203.125 343.5625 C202.41653479 344.96868357 201.7082055 346.37493562 201 347.78125 C200.6390625 348.49667969 200.278125 349.21210938 199.90625 349.94921875 C198.82605998 352.09802533 197.75514602 354.25118673 196.6875 356.40625 C193.2175531 363.40396267 189.72204261 370.35848395 185.8125 377.125 C185.1525 377.125 184.4925 377.125 183.8125 377.125 C183.70679688 377.8571875 183.60109375 378.589375 183.4921875 379.34375 C181.39721983 387.91626137 173.24379158 395.30803405 167.5703125 401.89453125 C165.0792268 404.79104244 162.69190216 407.76082274 160.3125 410.75 C155.56563783 416.57842571 150.44997744 422.14281908 144.8125 427.125 C144.1525 427.125 143.4925 427.125 142.8125 427.125 C142.44125 427.99125 142.44125 427.99125 142.0625 428.875 C140.61856301 431.47408658 139.07728013 433.20336838 136.8125 435.125 C135.8225 435.125 134.8325 435.125 133.8125 435.125 C133.52052734 435.94871094 133.52052734 435.94871094 133.22265625 436.7890625 C131.20841181 440.12567794 128.30888558 442.17761657 125.25 444.5 C124.61884277 444.98678223 123.98768555 445.47356445 123.33740234 445.97509766 C118.63063373 449.5758057 113.82719155 452.96505738 108.8125 456.125 C108.18472656 456.54007813 107.55695313 456.95515625 106.91015625 457.3828125 C101.99045983 460.58212428 96.8312918 463.13972176 91.5625 465.71484375 C88.67797971 467.12275714 88.67797971 467.12275714 85.6875 469.25 C82.37753157 471.40867506 79.05155643 472.72343982 75.37109375 474.12890625 C73.05524194 475.03049741 70.8162191 476.01747941 68.5625 477.0625 C63.55590448 479.32211391 58.39470594 481.09520912 53.2109375 482.90234375 C50.41648267 483.90770508 47.72065956 485.00359524 45 486.1875 C31.86721347 491.45340629 18.03232704 492.89457782 4.03808594 493.89135742 C1.76871863 494.0919327 1.76871863 494.0919327 -0.6027832 494.62768555 C-5.70808904 495.6099759 -10.94015156 495.56511125 -16.125 495.75 C-17.36306396 495.79431152 -18.60112793 495.83862305 -19.87670898 495.88427734 C-48.31369952 496.74960016 -48.31369952 496.74960016 -56.1875 494.125 C-58.18687496 493.91442975 -60.18685243 493.70804823 -62.18945312 493.53076172 C-79.19602462 492.00671652 -94.43980075 488.96696734 -110.05078125 481.9375 C-113.15880783 480.5410092 -116.19565325 479.42497224 -119.5 478.5625 C-124.90377259 477.096433 -129.73663444 474.50895662 -134.6796875 471.94140625 C-137.82295979 470.31376525 -140.99519275 468.77805107 -144.1875 467.25 C-163.12666197 457.78041902 -179.64038794 444.12769879 -195.63476562 430.43212891 C-196.71446556 429.5232117 -197.80811895 428.63071883 -198.91210938 427.75146484 C-200.37106992 426.58369777 -201.78372515 425.35855664 -203.1875 424.125 C-203.1875 423.465 -203.1875 422.805 -203.1875 422.125 C-203.78433594 421.86332031 -204.38117188 421.60164063 -204.99609375 421.33203125 C-207.33033074 420.04632852 -208.5474093 418.84602904 -210.25 416.8125 C-210.85199219 416.09835937 -211.45398438 415.38421875 -212.07421875 414.6484375 C-212.77160156 413.81570313 -213.46898437 412.98296875 -214.1875 412.125 C-215.03957031 411.14789063 -215.89164063 410.17078125 -216.76953125 409.1640625 C-239.82152548 382.64529632 -259.81923357 346.95629529 -266.66015625 312.23046875 C-267.14558809 310.05019919 -267.14558809 310.05019919 -268.1875 307.81640625 C-269.42246634 304.49261013 -269.75031151 301.4006403 -270.125 297.875 C-270.56778575 293.73086927 -271.06660349 289.7078968 -271.91357422 285.62426758 C-274.28336415 274.18333655 -274.58674364 263.08315489 -274.46875 251.42114258 C-274.43736952 248.2995201 -274.42773701 245.17840602 -274.421875 242.05664062 C-274.32595545 217.22162387 -274.32595545 217.22162387 -271.7109375 206.62890625 C-271.06041938 203.51709941 -270.73310741 200.40877766 -270.375 197.25 C-265.96533372 162.90283372 -265.96533372 162.90283372 -257.1875 154.125 C-256.57656644 152.74967563 -256.02244618 151.3488139 -255.5 149.9375 C-252.75689704 142.83463643 -249.45064574 135.9996048 -246.1875 129.125 C-245.5275 129.125 -244.8675 129.125 -244.1875 129.125 C-244.001875 128.01125 -244.001875 128.01125 -243.8125 126.875 C-243.23263299 124.32358515 -242.45041261 122.3982427 -241.1875 120.125 C-240.5275 120.125 -239.8675 120.125 -239.1875 120.125 C-238.98125 119.3 -238.775 118.475 -238.5625 117.625 C-237.05604321 113.79038272 -235.09358449 111.13816586 -232.52734375 107.95703125 C-230.99599826 106.05845432 -230.99599826 106.05845432 -230.1875 103.125 C-229.5275 103.125 -228.8675 103.125 -228.1875 103.125 C-227.9296875 102.39796875 -227.671875 101.6709375 -227.40625 100.921875 C-226.1373436 98.0098975 -224.65522748 95.85967284 -222.6875 93.375 C-221.77484375 92.20710938 -221.77484375 92.20710938 -220.84375 91.015625 C-219.1875 89.125 -219.1875 89.125 -217.1875 88.125 C-216.6925 87.279375 -216.1975 86.43375 -215.6875 85.5625 C-215.1925 84.758125 -214.6975 83.95375 -214.1875 83.125 C-213.5275 83.125 -212.8675 83.125 -212.1875 83.125 C-211.91164062 82.53332031 -211.63578125 81.94164062 -211.3515625 81.33203125 C-208.25624602 75.4633943 -203.21018372 71.12672315 -198.20703125 66.8984375 C-195.57760016 64.58942064 -193.20130787 62.07684056 -190.828125 59.5078125 C-188.96758086 57.93963958 -187.56307046 57.52781412 -185.1875 57.125 C-185.1875 56.465 -185.1875 55.805 -185.1875 55.125 C-183.28575883 53.47118057 -181.38778532 51.94596704 -179.375 50.4375 C-178.77751953 49.98616699 -178.18003906 49.53483398 -177.56445312 49.06982422 C-160.11719477 36.03083215 -140.39563095 25.21294104 -120.1875 17.125 C-119.01445312 16.64933594 -117.84140625 16.17367187 -116.6328125 15.68359375 C-100.34760595 9.23180427 -83.48032728 4.89819678 -66.15380859 2.41308594 C-64.32423577 2.1450333 -62.49967223 1.84338246 -60.67578125 1.5390625 C-40.77784505 -1.77325981 -20.05611447 -1.98434384 0 0 Z " fill="#FDFDFD" transform="translate(463.1875,72.875)"/>
<path d="M0 0 C0.68000722 3.95615901 1.34151743 7.91520618 2 11.875 C2.19078125 12.98359375 2.3815625 14.0921875 2.578125 15.234375 C3.92869496 23.43426402 5.1783909 31.83103413 3 40 C4.485 40.495 4.485 40.495 6 41 C4.515 41.495 4.515 41.495 3 42 C3 45.63 3 49.26 3 53 C2.34 52.67 1.68 52.34 1 52 C0.375 48.9375 0.375 48.9375 0 46 C0.29970154 51.24230833 0.29970154 51.24230833 2.1875 56 C4.9326505 57.51456579 6.92009728 57.37713094 10 57 C12.23657312 55.91012569 12.23657312 55.91012569 14 54 C14.69749589 51.27510527 14.69749589 51.27510527 14.75 48.3125 C14.83507812 46.82169922 14.83507812 46.82169922 14.921875 45.30078125 C14.94765625 44.54152344 14.9734375 43.78226563 15 43 C15.33 43 15.66 43 16 43 C16.06058594 43.77085937 16.12117188 44.54171875 16.18359375 45.3359375 C16.26738281 46.33882813 16.35117187 47.34171875 16.4375 48.375 C16.51871094 49.37273437 16.59992188 50.37046875 16.68359375 51.3984375 C16.84965626 53.97927613 16.84965626 53.97927613 18 56 C20.97 56 23.94 56 27 56 C27 56.66 27 57.32 27 58 C27.66 58 28.32 58 29 58 C28.99476318 57.410979 28.98952637 56.82195801 28.98413086 56.21508789 C28.96310197 53.49756983 28.95025854 50.78006899 28.9375 48.0625 C28.92912109 47.13630859 28.92074219 46.21011719 28.91210938 45.25585938 C28.89162214 39.41699697 29.24570213 33.79086947 30 28 C30.99 27.67 31.98 27.34 33 27 C33 32.94 33 38.88 33 45 C34.98 45.495 34.98 45.495 37 46 C36.01 46.66 35.02 47.32 34 48 C33.63539547 50.66653905 33.63539547 50.66653905 33.8125 53.625 C33.83957031 54.62789063 33.86664063 55.63078125 33.89453125 56.6640625 C33.94673828 57.82035156 33.94673828 57.82035156 34 59 C37.46485707 58.37967524 37.46485707 58.37967524 41 57 C43.20598362 53.00538101 43.60331864 48.65600019 44.125 44.1875 C44.25455078 43.14819336 44.25455078 43.14819336 44.38671875 42.08789062 C44.59716081 40.39266294 44.79941672 38.69642245 45 37 C45.26554687 37.63421875 45.53109375 38.2684375 45.8046875 38.921875 C46.90870494 41.33786225 46.90870494 41.33786225 50.125 42.25 C51.07375 42.4975 52.0225 42.745 53 43 C52.01 43.495 52.01 43.495 51 44 C51.33 44.66 51.66 45.32 52 46 C53.32 46 54.64 46 56 46 C56 46.99 56 47.98 56 49 C58.97 49.99 61.94 50.98 65 52 C65 52.66 65 53.32 65 54 C65.58265625 54.268125 66.1653125 54.53625 66.765625 54.8125 C69.02786601 56.01480991 70.80576318 57.33825913 72.75 59 C73.36359375 59.515625 73.9771875 60.03125 74.609375 60.5625 C76 62 76 62 76 64 C76.9590625 64.37125 76.9590625 64.37125 77.9375 64.75 C80 66 80 66 80.62890625 68.078125 C80.81259766 69.02945313 80.81259766 69.02945313 81 70 C79.8803014 71.00593243 78.7540588 72.0045849 77.625 73 C76.99851562 73.556875 76.37203125 74.11375 75.7265625 74.6875 C74 76 74 76 72 76 C71.74347656 76.59554687 71.48695313 77.19109375 71.22265625 77.8046875 C69.89030313 80.19696371 68.56631395 81.42728199 66.4375 83.125 C63.78974334 85.20903634 63.78974334 85.20903634 62 88 C58.43322251 87.40952677 56.58466641 86.04264332 53.9375 83.625 C53.26589844 83.01914062 52.59429687 82.41328125 51.90234375 81.7890625 C50.72189612 80.67890847 49.56618526 79.54098895 48.453125 78.36328125 C46.53667003 76.56531678 44.35745235 75.77979833 41.94140625 74.81640625 C39.96825415 73.98665014 38.13268012 73.01672458 36.25 72 C27.71017428 67.80273216 19.81528203 66.73033922 10.375 66.6875 C9.49239502 66.68202148 8.60979004 66.67654297 7.70043945 66.67089844 C0.01693724 66.75412621 -7.28422115 67.51031399 -13.9375 71.625 C-17.82947977 74 -17.82947977 74 -20 74 C-20 74.66 -20 75.32 -20 76 C-20.825 76.515625 -21.65 77.03125 -22.5 77.5625 C-32.51371054 83.98638978 -39.45321789 95.55676636 -42 107 C-43.63605779 124.7183022 -42.5092199 141.38474874 -31.03125 155.66796875 C-30.3609375 156.43753906 -29.690625 157.20710937 -29 158 C-28.4328125 158.67675781 -27.865625 159.35351562 -27.28125 160.05078125 C-19.40881329 168.72160187 -6.48364295 173.4218384 5.06640625 174.12597656 C18.63156855 174.59029538 30.62997087 174.15080402 42 166 C43.60309016 164.95667739 45.20727786 163.91503943 46.8125 162.875 C48.97209068 161.46075478 50.83402365 160.17033372 52.63671875 158.3203125 C54 157 54 157 56 157 C56 156.34 56 155.68 56 155 C59 153 59 153 62 153 C64.375 155.1875 64.375 155.1875 67 158 C68.1446875 159.11375 68.1446875 159.11375 69.3125 160.25 C70.199375 161.1575 71.08625 162.065 72 163 C72.70253906 163.71800781 73.40507812 164.43601562 74.12890625 165.17578125 C74.87011719 165.96339844 75.61132812 166.75101563 76.375 167.5625 C77.08398438 168.30628906 77.79296875 169.05007813 78.5234375 169.81640625 C80 172 80 172 79.81640625 174.16796875 C78.8586235 176.31725156 77.83389167 177.53288667 76 179 C75.34 179 74.68 179 74 179 C74 179.66 74 180.32 74 181 C71.525 181.99 71.525 181.99 69 183 C69 183.66 69 184.32 69 185 C56.03900133 196.12581301 37.43001156 204.18257807 20.3203125 204.1328125 C19.58932343 204.13376923 18.85833435 204.13472595 18.10519409 204.13571167 C16.56378086 204.1363899 15.02236472 204.13456058 13.48095703 204.13037109 C11.13958204 204.12503324 8.7984002 204.13032022 6.45703125 204.13671875 C4.95312458 204.1360576 3.44921803 204.13477569 1.9453125 204.1328125 C1.25341827 204.13483673 0.56152405 204.13686096 -0.15133667 204.13894653 C-6.48342545 204.10888839 -12.27502048 203.55485462 -18.125 201.0625 C-19.33542969 200.55396484 -19.33542969 200.55396484 -20.5703125 200.03515625 C-21.37210937 199.69355469 -22.17390625 199.35195313 -23 199 C-24.66522325 198.32973605 -26.33149696 197.66205726 -28 197 C-28 196.34 -28 195.68 -28 195 C-29.6396875 194.8453125 -29.6396875 194.8453125 -31.3125 194.6875 C-35.20708332 193.96139124 -35.55880986 193.74633891 -38 191 C-39.051875 190.46375 -40.10375 189.9275 -41.1875 189.375 C-45.35803354 187.09534395 -48.07528374 183.82288044 -51.10546875 180.21875 C-52.97536257 177.96792075 -52.97536257 177.96792075 -55.09765625 175.9140625 C-57.78366068 173.21151184 -61 169.95943048 -61 166 C-61.66 166 -62.32 166 -63 166 C-64.00904375 163.7536764 -65.0073602 161.50356063 -66 159.25 C-66.42925781 158.29867187 -66.42925781 158.29867187 -66.8671875 157.328125 C-68.36006702 153.91582896 -69 151.79218083 -69 148 C-69.66 148 -70.32 148 -71 148 C-71.13277344 147.02417969 -71.26554687 146.04835938 -71.40234375 145.04296875 C-71.57894531 143.77066406 -71.75554687 142.49835938 -71.9375 141.1875 C-72.11152344 139.92292969 -72.28554688 138.65835938 -72.46484375 137.35546875 C-72.90392455 134.01678297 -72.90392455 134.01678297 -74 131 C-75.1909222 116.11166809 -74.4323069 99.7059704 -68 86 C-67.60167969 85.09121094 -67.20335937 84.18242187 -66.79296875 83.24609375 C-61.59684997 72.03793671 -53.40511794 60.9367453 -43 54 C-42.01 54 -41.02 54 -40 54 C-40 53.34 -40 52.68 -40 52 C-38.02 51.34 -36.04 50.68 -34 50 C-34 49.34 -34 48.68 -34 48 C-31.09451118 45.95830515 -29.59857954 45 -26 45 C-26 44.34 -26 43.68 -26 43 C-27.051875 43.061875 -28.10375 43.12375 -29.1875 43.1875 C-33.19113117 42.99060011 -34.89973887 42.46197207 -38 40 C-38.33 39.01 -38.66 38.02 -39 37 C-34.05 37.66 -29.1 38.32 -24 39 C-24 38.34 -24 37.68 -24 37 C-23.21625 36.7525 -22.4325 36.505 -21.625 36.25 C-18.58531937 34.80253303 -18.17032569 34.06085181 -17 31 C-16.649375 30.401875 -16.29875 29.80375 -15.9375 29.1875 C-14.6532312 26.19087279 -14.37181126 23.22236424 -14 20 C-14.66 20 -15.32 20 -16 20 C-16.33 20.66 -16.66 21.32 -17 22 C-17 20.68 -17 19.36 -17 18 C-17.9075 18.495 -18.815 18.99 -19.75 19.5 C-23 21 -23 21 -27 21 C-26.96865438 13.35166855 -25.41967516 8.49582984 -20 3 C-13.49448701 -2.28729917 -7.89170349 -2.63056783 0 0 Z " fill="#050505" transform="translate(334,210)"/>
<path d="M0 0 C3.42483383 1.63824443 5.50433847 3.69003739 6.875 7.3125 C6.91625 7.869375 6.9575 8.42625 7 9 C7.680625 8.649375 8.36125 8.29875 9.0625 7.9375 C12.84039935 6.73178744 15.1655094 7.04137735 19 8 C22.77907765 10.40486759 25.15017291 12.91090853 27 17 C27.1875 20.3125 27.1875 20.3125 27 23 C28.093125 23.020625 29.18625 23.04125 30.3125 23.0625 C31.529375 23.371875 32.74625 23.68125 34 24 C36.61447235 28.85280599 37.55134736 33.2475515 38.1875 38.75 C38.30810791 39.78737305 38.30810791 39.78737305 38.43115234 40.84570312 C39.05313834 46.56956573 39.2194919 52.24443468 39 58 C38.34 58 37.68 58 37 58 C36.67 57.34 36.34 56.68 36 56 C33.97536745 55.34786708 33.97536745 55.34786708 32 55 C32 54.34 32 53.68 32 53 C29.53673288 51.3553326 29.53673288 51.3553326 27 50 C25.87931151 52.24137697 25.80265809 53.76278675 25.625 56.25 C25.18849514 60.61504855 24.21996194 64.78003806 21 68 C19.00041636 68.04080783 16.99954746 68.04254356 15 68 C13.82326802 65.64653604 13.83376134 64.1193967 13.8125 61.5 C13.79832031 60.7059375 13.78414063 59.911875 13.76953125 59.09375 C14 57 14 57 16 55 C15.01 55 14.02 55 13 55 C12.97309896 52.20826945 12.95320947 49.41679652 12.9375 46.625 C12.92912109 45.8309375 12.92074219 45.036875 12.91210938 44.21875 C12.88671875 38.2265625 12.88671875 38.2265625 14 36 C13.01 36.495 13.01 36.495 12 37 C10.98638402 43.65227444 10.72265136 50.34508181 10.4375 57.0625 C10.39431641 58.02349609 10.35113281 58.98449219 10.30664062 59.97460938 C10.20178868 62.31630277 10.09962212 64.65807929 10 67 C8.515 66.505 8.515 66.505 7 66 C5.66602663 66.00537892 4.33183616 66.04932749 3 66.125 C-0.74162679 66.1937799 -0.74162679 66.1937799 -3 64.5 C-3.33 64.005 -3.66 63.51 -4 63 C-5.051875 63.99 -5.051875 63.99 -6.125 65 C-9.50263831 67.34966143 -10.97304363 67.68543938 -15 67 C-17.62419798 65.29781752 -18.76637133 64.02875145 -19.46484375 60.953125 C-19.72058899 58.9772303 -19.86746906 56.98796405 -20 55 C-19.01 54.505 -19.01 54.505 -18 54 C-17.67 55.98 -17.34 57.96 -17 60 C-16.95101563 59.36191406 -16.90203125 58.72382813 -16.8515625 58.06640625 C-16.77679688 57.24011719 -16.70203125 56.41382813 -16.625 55.5625 C-16.55539062 54.73878906 -16.48578125 53.91507813 -16.4140625 53.06640625 C-16.27742188 52.38449219 -16.14078125 51.70257813 -16 51 C-15.01 50.505 -15.01 50.505 -14 50 C-14.66 49.67 -15.32 49.34 -16 49 C-15.95359375 48.20722656 -15.9071875 47.41445312 -15.859375 46.59765625 C-15.55097244 36.62964504 -16.90560597 27.27879673 -18.75292969 17.48266602 C-18.94016602 16.44295654 -19.12740234 15.40324707 -19.3203125 14.33203125 C-19.49836426 13.40108643 -19.67641602 12.4701416 -19.85986328 11.51098633 C-20.09597107 7.28037896 -18.32953477 5.38156658 -15.625 2.25 C-11.08548158 -1.35030771 -5.46580455 -0.94212226 0 0 Z " fill="#646464" transform="translate(353,201)"/>
<path d="M0 0 C1.06335571 0.0141394 1.06335571 0.0141394 2.14819336 0.02856445 C10.47437488 0.26908368 16.87470099 2.83419439 23.125 8.375 C27.86243976 15.48115964 27.91227892 24.09362299 27.125 32.375 C25.44623595 39.52231279 21.81915045 45.68845642 16.125 50.375 C13.01857722 51.66041632 11.3465602 52.12389995 8.125 52.375 C7.13113281 52.46652344 6.13726562 52.55804688 5.11328125 52.65234375 C-3.02608585 53.04727162 -8.80164568 51.34401645 -15.875 47.375 C-15.875 46.385 -15.875 45.395 -15.875 44.375 C-16.48859375 44.10945313 -17.1021875 43.84390625 -17.734375 43.5703125 C-20.54770265 41.99936677 -21.77744024 40.00442534 -23.109375 37.11328125 C-25.4318027 28.80704747 -25.14404186 18.72414501 -21.0234375 11.08203125 C-19.51930503 8.84629694 -18.01831477 7.01820799 -15.875 5.375 C-15.215 5.375 -14.555 5.375 -13.875 5.375 C-13.875 4.715 -13.875 4.055 -13.875 3.375 C-9.20357398 0.62453421 -5.33411337 -0.10914271 0 0 Z " fill="#0C0C0C" transform="translate(377.875,303.625)"/>
<path d="M0 0 C1.27230469 -0.020625 2.54460938 -0.04125 3.85546875 -0.0625 C12.33588828 -0.09787193 18.46192356 0.35224949 25.125 6 C25.95257812 6.67289062 25.95257812 6.67289062 26.796875 7.359375 C31.34624975 12.80961604 31.8534859 18.37467813 31.75 25.1875 C31.76160156 25.94740234 31.77320313 26.70730469 31.78515625 27.49023438 C31.75468 33.43818308 30.90722754 39.29434122 26.89599609 43.97631836 C25.375 45.25 25.375 45.25 23.375 45.25 C23.375 45.91 23.375 46.57 23.375 47.25 C20.90314031 49.87884755 19.42827794 50.2449247 15.79980469 50.59057617 C14.38207272 50.59010403 12.96428209 50.57332145 11.546875 50.54296875 C10.42336639 50.53660149 10.42336639 50.53660149 9.27716064 50.53010559 C6.89273625 50.51335746 4.50916747 50.47571397 2.125 50.4375 C0.50522057 50.42244809 -1.11457215 50.40876057 -2.734375 50.39648438 C-6.69824466 50.3634668 -10.66147743 50.31171246 -14.625 50.25 C-14.65026838 43.28996553 -14.66783222 36.3299428 -14.67993164 29.36987305 C-14.68497341 27.00007688 -14.69180665 24.63028385 -14.70043945 22.26049805 C-14.7125119 18.86245961 -14.71822971 15.46446215 -14.72265625 12.06640625 C-14.72781754 10.99975235 -14.73297882 9.93309845 -14.73829651 8.8341217 C-14.73837204 7.85318039 -14.73844757 6.87223907 -14.73852539 5.86157227 C-14.740746 4.99331314 -14.74296661 4.12505402 -14.74525452 3.23048401 C-14.40969309 -2.29591169 -4.09289582 0.01629013 0 0 Z " fill="#0F0F0F" transform="translate(531.625,303.75)"/>
<path d="M0 0 C8.724375 -0.1546875 8.724375 -0.1546875 17.625 -0.3125 C19.4498291 -0.35802002 21.2746582 -0.40354004 23.15478516 -0.45043945 C24.61619229 -0.4650551 26.07761992 -0.47779323 27.5390625 -0.48828125 C28.65897583 -0.526651 28.65897583 -0.526651 29.80151367 -0.5657959 C33.84603129 -0.5691429 36.27120175 -0.18076283 39.46630859 2.40551758 C43.38227979 6.41544491 43.33224393 9.0838894 43.29296875 14.51171875 C42.88539308 17.9733948 41.58244144 19.7213752 39 22 C38.34 22 37.68 22 37 22 C37.495 22.99 37.495 22.99 38 24 C38.598125 24.0825 39.19625 24.165 39.8125 24.25 C43.39726531 25.47906239 44.32210529 27.7041354 46 31 C46.88407265 35.44688541 46.37191264 38.2960225 44.25 42.3125 C41.57404514 45.50877942 39.63696213 47.67061898 35.46777344 48.50952148 C27.72088755 48.98129545 20.01048924 49.11910569 12.25 49.0625 C8.2075 49.041875 4.165 49.02125 0 49 C0 32.83 0 16.66 0 0 Z " fill="#0A0A0A" transform="translate(302,305)"/>
<path d="M0 0 C5.28 -0.0825 10.56 -0.165 16 -0.25 C18.475 -0.30462402 18.475 -0.30462402 21 -0.36035156 C28.52861506 -0.455301 34.55109785 -0.35643922 41 4 C41 4.66 41 5.32 41 6 C41.66 6 42.32 6 43 6 C45.00849574 10.14252247 45.48262992 13.4150158 45 18 C43.125 21.25 43.125 21.25 41 24 C40.34 24.99 39.68 25.98 39 27 C37.67405895 27.36162029 36.34061543 27.69728039 35 28 C34.67 28.66 34.34 29.32 34 30 C34.556875 30.061875 35.11375 30.12375 35.6875 30.1875 C41.82753746 32.34481046 44.34901125 38.14002555 47.08203125 43.59765625 C48 46 48 46 48 50 C42.39 50 36.78 50 31 50 C30.44570313 48.86820312 29.89140625 47.73640625 29.3203125 46.5703125 C28.5887537 45.08843697 27.85697122 43.60667185 27.125 42.125 C26.76019531 41.37863281 26.39539063 40.63226563 26.01953125 39.86328125 C25.66503906 39.14785156 25.31054688 38.43242187 24.9453125 37.6953125 C24.62062988 37.03547363 24.29594727 36.37563477 23.96142578 35.69580078 C22.99724181 33.81965314 22.99724181 33.81965314 21 32 C19.35 31.67 17.7 31.34 16 31 C16 37.27 16 43.54 16 50 C10.72 50 5.44 50 0 50 C0 33.5 0 17 0 0 Z " fill="#0F0F0F" transform="translate(621,304)"/>
<path d="M0 0 C13.53 0 27.06 0 41 0 C41 3.96 41 7.92 41 12 C32.75 12 24.5 12 16 12 C16 13.98 16 15.96 16 18 C16.69150146 17.99476318 17.38300293 17.98952637 18.09545898 17.98413086 C21.20946352 17.963425 24.32345361 17.95036037 27.4375 17.9375 C28.52611328 17.92912109 29.61472656 17.92074219 30.73632812 17.91210938 C31.77080078 17.90888672 32.80527344 17.90566406 33.87109375 17.90234375 C34.82943115 17.89710693 35.78776855 17.89187012 36.77514648 17.88647461 C39 18 39 18 40 19 C40.09823937 20.66429051 40.12973631 22.33281931 40.125 24 C40.12886719 25.36125 40.12886719 25.36125 40.1328125 26.75 C40 29 40 29 39 30 C37.29227642 30.08713831 35.58101351 30.10700007 33.87109375 30.09765625 C32.31938477 30.09282227 32.31938477 30.09282227 30.73632812 30.08789062 C29.64771484 30.07951172 28.55910156 30.07113281 27.4375 30.0625 C25.7987793 30.05573242 25.7987793 30.05573242 24.12695312 30.04882812 C21.41791505 30.03699826 18.70898401 30.02051543 16 30 C16 32.64 16 35.28 16 38 C24.58 38 33.16 38 42 38 C42 41.96 42 45.92 42 50 C28.14 50 14.28 50 0 50 C0 33.5 0 17 0 0 Z " fill="#181818" transform="translate(571,304)"/>
<path d="M0 0 C5.28 0 10.56 0 16 0 C16.33 12.54 16.66 25.08 17 38 C20.40887983 38.85221996 22.80434631 39.10783755 26.25 39.0625 C27.14203125 39.05347656 28.0340625 39.04445313 28.953125 39.03515625 C29.96632813 39.01775391 29.96632813 39.01775391 31 39 C32.00643768 34.77009642 32.2125027 30.62025877 32.31640625 26.29296875 C32.33718735 25.56757401 32.35796844 24.84217926 32.37937927 24.09480286 C32.44442215 21.79245887 32.50354773 19.49000718 32.5625 17.1875 C32.60572835 15.62043186 32.64934398 14.05337435 32.69335938 12.48632812 C32.80078096 8.65766055 32.90018942 4.82890373 33 1 C37.95 1 42.9 1 48 1 C48.09241341 5.53595829 48.17186169 10.06858258 48.21972656 14.60473633 C48.23970121 16.14391211 48.26689097 17.68301338 48.30175781 19.22192383 C48.52770032 29.45911318 48.52363384 37.93783832 41.375 45.9375 C40.59125 46.618125 39.8075 47.29875 39 48 C38.34 48.66 37.68 49.32 37 50 C32.77277448 51.21552089 28.49078367 51.18341983 24.125 51.1875 C23.10212891 51.20586914 23.10212891 51.20586914 22.05859375 51.22460938 C16.75303698 51.23976811 11.53884617 50.84643358 7.109375 47.625 C-0.8438867 38.11765268 -0.39519039 27.13889733 -0.1875 15.375 C-0.1724192 13.87891979 -0.15873683 12.3828248 -0.14648438 10.88671875 C-0.11633837 7.25713986 -0.05757974 3.62965624 0 0 Z " fill="#0C0C0C" transform="translate(413,304)"/>
<path d="M0 0 C5.28 0 10.56 0 16 0 C16.03738281 2.57554687 16.07476562 5.15109375 16.11328125 7.8046875 C16.15946598 10.29354446 16.21071056 12.78224918 16.26245117 15.27099609 C16.29574643 17.00332421 16.32376397 18.735762 16.34643555 20.46826172 C16.37989807 22.95588007 16.43220658 25.44248904 16.48828125 27.9296875 C16.49467117 28.70682098 16.5010611 29.48395447 16.50764465 30.28463745 C16.53966898 32.69967927 16.53966898 32.69967927 17 36 C20.16240582 38.10827055 21.50657469 38.33817465 25.1875 38.625 C26.08855469 38.69976562 26.98960937 38.77453125 27.91796875 38.8515625 C28.60503906 38.90054688 29.29210937 38.94953125 30 39 C30.144375 38.195625 30.28875 37.39125 30.4375 36.5625 C31 34 31 34 32 33 C32.15971977 30.62661361 32.2592433 28.27881728 32.31640625 25.90234375 C32.33718735 25.19348526 32.35796844 24.48462677 32.37937927 23.75428772 C32.44494598 21.48212695 32.5037923 19.20984736 32.5625 16.9375 C32.60567849 15.40037817 32.64929255 13.8632685 32.69335938 12.32617188 C32.80145734 8.55090144 32.90047637 4.77554534 33 1 C37.62 1 42.24 1 47 1 C47.09951569 5.83799361 47.17177037 10.67538025 47.21972656 15.51416016 C47.23973571 17.1571695 47.26695213 18.80010859 47.30175781 20.44287109 C47.35075305 22.81625788 47.37307504 25.18869649 47.390625 27.5625 C47.41127014 28.28679199 47.43191528 29.01108398 47.45318604 29.75732422 C47.45555353 35.24359489 46.02281118 39.40811765 43 44 C40.5 46.3125 40.5 46.3125 38 48 C37.47792969 48.51949219 36.95585937 49.03898437 36.41796875 49.57421875 C32.68781722 51.77374267 29.06895005 51.53237935 24.8125 51.5 C23.53137329 51.49141968 23.53137329 51.49141968 22.22436523 51.48266602 C15.89152456 51.30276609 10.71082126 50.59535995 6 46 C1.10514834 39.88143542 -0.30958013 32.8429941 -0.1953125 25.1953125 C-0.1924826 24.4713327 -0.18965271 23.74735291 -0.18673706 23.00143433 C-0.17562087 20.7091151 -0.15053312 18.41719937 -0.125 16.125 C-0.1149591 14.56250568 -0.10583519 13.00000518 -0.09765625 11.4375 C-0.07741858 7.62472282 -0.0382556 3.81280835 0 0 Z " fill="#080808" transform="translate(205,305)"/>
<path d="M0 0 C4.95 0 9.9 0 15 0 C15 12.21 15 24.42 15 37 C23.25 37 31.5 37 40 37 C40 40.96 40 44.92 40 49 C26.8 49 13.6 49 0 49 C0 32.83 0 16.66 0 0 Z " fill="#0A0A0A" transform="translate(471,305)"/>
<path d="M0 0 C2.79092207 4.18638311 3.21610731 8.070186 4 13 C4.11972168 13.67691895 4.23944336 14.35383789 4.36279297 15.05126953 C6.5078309 27.55260522 5.68746727 37.21012195 1 49 C0.74831055 49.65484375 0.49662109 50.3096875 0.23730469 50.984375 C-1.69811848 55.80933799 -1.69811848 55.80933799 -4.375 57.5 C-8.50789021 58.28721718 -10.827685 57.74040948 -14.375 55.5 C-16.52611228 52.19059649 -16.22764001 50.2440506 -15.62109375 46.4296875 C-14.7819748 43.14709641 -13.44185059 40.23635143 -11.9921875 37.18359375 C-9.16703485 30.96603339 -8.04634664 24.68067477 -10 18 C-11.93704708 16.10709491 -11.93704708 16.10709491 -14 15 C-14 14.01 -14 13.02 -14 12 C-15.32 12.33 -16.64 12.66 -18 13 C-18 14.32 -18 15.64 -18 17 C-18.66 17 -19.32 17 -20 17 C-20 15.35 -20 13.7 -20 12 C-19.34 12 -18.68 12 -18 12 C-17.9175 11.278125 -17.835 10.55625 -17.75 9.8125 C-16.81581801 6.30931756 -15.56094911 4.56094911 -13 2 C-8.66064603 -0.02503185 -4.75962578 -0.45765632 0 0 Z " fill="#898989" transform="translate(330,211)"/>
<path d="M0 0 C0.33 0.99 0.66 1.98 1 3 C5.95 1.515 5.95 1.515 11 0 C11.495 0.99 11.495 0.99 12 2 C12.66 2 13.32 2 14 2 C14.29686516 7.0467077 14.0926459 9.94756744 11 14 C8.4375 16.8125 8.4375 16.8125 6 19 C5.34 19 4.68 19 4 19 C4 19.66 4 20.32 4 21 C1.87465341 20.85930804 -0.25027529 20.71229079 -2.375 20.5625 C-3.55835938 20.48128906 -4.74171875 20.40007812 -5.9609375 20.31640625 C-9 20 -9 20 -11 19 C-9.38380344 21.6417565 -8.50572658 22.831159 -5.51953125 23.828125 C-4.62621094 23.96734375 -3.73289062 24.1065625 -2.8125 24.25 C-1.91144531 24.39953125 -1.01039063 24.5490625 -0.08203125 24.703125 C0.60503906 24.80109375 1.29210937 24.8990625 2 25 C2 25.66 2 26.32 2 27 C-3.75 30 -3.75 30 -6 30 C-6 30.66 -6 31.32 -6 32 C-9 34 -9 34 -12 34 C-12.33 34.66 -12.66 35.32 -13 36 C-13.33773438 35.30132812 -13.67546875 34.60265625 -14.0234375 33.8828125 C-14.46945312 32.97273438 -14.91546875 32.06265625 -15.375 31.125 C-16.03628906 29.76761719 -16.03628906 29.76761719 -16.7109375 28.3828125 C-17.90502699 25.90465528 -17.90502699 25.90465528 -20 24 C-21.34326705 20.37317896 -21.40184867 16.81756236 -21 13 C-17.70194082 8.60258776 -14.04206902 6.96080462 -9 5 C-8.01 4.34 -7.02 3.68 -6 3 C-2.8125 2.875 -2.8125 2.875 0 3 C0 2.01 0 1.02 0 0 Z " fill="#303030" transform="translate(306,228)"/>
<path d="M0 0 C2.7197425 0.59124837 4.5522134 1.12145349 6.875 2.625 C8.35055564 6.32925948 8.31072606 10.16933416 7.17578125 13.9609375 C6.20757489 16.08104155 5.3857474 17.84658265 3.875 19.625 C2.55368734 20.00318216 1.21983718 20.3416242 -0.125 20.625 C-0.23457031 21.93855469 -0.34414063 23.25210938 -0.45703125 24.60546875 C-0.61653145 26.34120624 -0.77672413 28.0768802 -0.9375 29.8125 C-1.00775391 30.67681641 -1.07800781 31.54113281 -1.15039062 32.43164062 C-1.96304837 40.91578751 -1.96304837 40.91578751 -5.125 44.625 C-8.3125 44.9375 -8.3125 44.9375 -11.125 44.625 C-12.30173198 42.27153604 -12.29123866 40.7443967 -12.3125 38.125 C-12.32667969 37.3309375 -12.34085937 36.536875 -12.35546875 35.71875 C-12.125 33.625 -12.125 33.625 -10.125 31.625 C-11.115 31.625 -12.105 31.625 -13.125 31.625 C-13.17880578 28.83307795 -13.21857669 26.0421859 -13.25 23.25 C-13.26675781 22.4559375 -13.28351563 21.661875 -13.30078125 20.84375 C-13.31835473 18.77007985 -13.22835168 16.69616759 -13.125 14.625 C-12.465 13.965 -11.805 13.305 -11.125 12.625 C-10.44498963 11.2984224 -9.77991112 9.96414661 -9.125 8.625 C-4.43729236 0.88745847 -4.43729236 0.88745847 0 0 Z " fill="#898989" transform="translate(379.125,224.375)"/>
<path d="M0 0 C2.79580455 0.56629534 3.70743252 1.20700851 5.51171875 3.37109375 C9.04669779 9.07267285 9.09960189 13.83617036 8.44921875 20.49609375 C7.4165338 23.1585611 6.44564812 24.38222736 4.44921875 26.49609375 C3.78921875 26.49609375 3.12921875 26.49609375 2.44921875 26.49609375 C2.44921875 27.15609375 2.44921875 27.81609375 2.44921875 28.49609375 C-1.44821749 29.04173482 -4.97274875 29.39509408 -8.484375 27.39453125 C-12.36931657 23.61207016 -12.94771563 20.21231812 -13.05078125 14.87109375 C-12.9070394 9.82815037 -12.2840581 5.82935105 -9.23046875 1.71875 C-6.32707992 -0.39464698 -3.47940124 -0.0863501 0 0 Z " fill="#EEEEEE" transform="translate(381.55078125,315.50390625)"/>
<path d="M0 0 C4.00950068 0.06364287 4.91198263 0.21938208 8.1875 2.8125 C8.8475 3.67875 9.5075 4.545 10.1875 5.4375 C10.8475 6.0975 11.5075 6.7575 12.1875 7.4375 C11.83938934 12.42955506 10.03044001 16.75005432 8.125 21.3125 C7.84333984 22.00085938 7.56167969 22.68921875 7.27148438 23.3984375 C6.58234734 25.08039909 5.88569202 26.75927697 5.1875 28.4375 C-1.7425 27.9425 -1.7425 27.9425 -8.8125 27.4375 C-12.42711794 11.39763289 -12.42711794 11.39763289 -8.9375 5 C-5.86031802 1.28928055 -4.81530925 0.12272902 0 0 Z " fill="#F2F2F2" transform="translate(346.8125,202.5625)"/>
<path d="M0 0 C10 0 10 0 13.08984375 2.03515625 C15.48507272 5.75290429 15.6378442 8.03651224 15.5625 12.4375 C15.56443359 14.35369141 15.56443359 14.35369141 15.56640625 16.30859375 C14.9220142 20.50825226 13.64914433 22.7170417 11 26 C9 27 9 27 0 27 C0 18.09 0 9.18 0 0 Z " fill="#EDEDED" transform="translate(533,316)"/>
<path d="M0 0 C0.68000722 3.95615901 1.34151743 7.91520618 2 11.875 C2.19078125 12.98359375 2.3815625 14.0921875 2.578125 15.234375 C3.92869496 23.43426402 5.1783909 31.83103413 3 40 C4.485 40.495 4.485 40.495 6 41 C4.515 41.495 4.515 41.495 3 42 C3 45.63 3 49.26 3 53 C2.34 52.67 1.68 52.34 1 52 C0.375 48.9375 0.375 48.9375 0 46 C-0.99 46.495 -0.99 46.495 -2 47 C-1.50232687 43.68217915 -0.87685711 40.58804717 0.0859375 37.3671875 C1.28043955 32.63055678 0.87664236 28.42522563 0.25 23.625 C0.15146729 22.79226562 0.05293457 21.95953125 -0.04858398 21.1015625 C-0.8847434 14.28988995 -1.82434135 7.52697594 -4 1 C-12.0763302 2.10767532 -12.0763302 2.10767532 -19 6 C-20.26234471 8.29890418 -21.1091603 10.51502611 -22 13 C-22.66 13 -23.32 13 -24 13 C-24 14.65 -24 16.3 -24 18 C-23.34 18 -22.68 18 -22 18 C-22 16.68 -22 15.36 -22 14 C-20.68 13.67 -19.36 13.34 -18 13 C-17.67 13.99 -17.34 14.98 -17 16 C-16.34 16.37125 -15.68 16.7425 -15 17.125 C-12.22915272 19.72266932 -12.22183342 21.87486916 -11.94921875 25.5703125 C-12.02695896 29.28988248 -12.90331592 32.45190444 -14 36 C-14.66 35.01 -15.32 34.02 -16 33 C-16.99 33 -17.98 33 -19 33 C-18.52949219 32.61199219 -18.05898438 32.22398437 -17.57421875 31.82421875 C-15.59007113 29.52497076 -15.31466837 27.78688189 -14.8125 24.8125 C-14.57466797 23.46091797 -14.57466797 23.46091797 -14.33203125 22.08203125 C-14.22246094 21.39496094 -14.11289062 20.70789063 -14 20 C-14.66 20 -15.32 20 -16 20 C-16.33 20.66 -16.66 21.32 -17 22 C-17 20.68 -17 19.36 -17 18 C-17.9075 18.495 -18.815 18.99 -19.75 19.5 C-23 21 -23 21 -27 21 C-26.96865438 13.35166855 -25.41967516 8.49582984 -20 3 C-13.49448701 -2.28729917 -7.89170349 -2.63056783 0 0 Z " fill="#2F2F2F" transform="translate(334,210)"/>
<path d="M0 0 C5.53900893 8.3085134 4.5733329 20.3213937 5 30 C4.195625 29.5359375 4.195625 29.5359375 3.375 29.0625 C0.50232915 27.6572908 0.50232915 27.6572908 -5 27 C-5 22.38 -5 17.76 -5 13 C-6.32 12.34 -7.64 11.68 -9 11 C-9 10.34 -9 9.68 -9 9 C-10.65 9 -12.3 9 -14 9 C-14.33 7.35 -14.66 5.7 -15 4 C-9.81108673 0.77445932 -6.19063068 -0.45022769 0 0 Z " fill="#F3F3F3" transform="translate(330,211)"/>
<path d="M0 0 C4.04146606 -0.31697773 6.37764693 -0.35752198 9.9375 1.6875 C12 4 12 4 12.34375 6.3828125 C11.91212095 9.66907911 10.83839862 10.82001593 8.5625 13.1875 C5.96192996 15.87000776 5.96192996 15.87000776 4 19 C3.34 19 2.68 19 2 19 C1.731875 19.804375 1.46375 20.60875 1.1875 21.4375 C0.795625 22.283125 0.40375 23.12875 0 24 C-3.47325181 25.1577506 -6.36067448 25.06866652 -10 25 C-9.25749403 20.91621717 -8.17076699 16.98060777 -7 13 C-6.34 13 -5.68 13 -5 13 C-4.80664062 12.39671875 -4.61328125 11.7934375 -4.4140625 11.171875 C-4.02347656 9.97304687 -4.02347656 9.97304687 -3.625 8.75 C-3.36976563 7.96109375 -3.11453125 7.1721875 -2.8515625 6.359375 C-2.04826333 4.13372042 -1.10288338 2.09068328 0 0 Z " fill="#F5F5F5" transform="translate(364,211)"/>
<path d="M0 0 C0.33 0.66 0.66 1.32 1 2 C1.66 2 2.32 2 3 2 C3.3636198 6.24223102 2.5393228 8.58168085 0 12 C-0.66 12 -1.32 12 -2 12 C-2.33 12.99 -2.66 13.98 -3 15 C-5.31 15.33 -7.62 15.66 -10 16 C-10 16.66 -10 17.32 -10 18 C-18.92440992 18.62384225 -18.92440992 18.62384225 -23.125 16.1875 C-25 14 -25 14 -25 11 C-23.68 11 -22.36 11 -21 11 C-21 10.34 -21 9.68 -21 9 C-19.35 9 -17.7 9 -16 9 C-16 8.01 -16 7.02 -16 6 C-13.36 5.67 -10.72 5.34 -8 5 C-8 4.34 -8 3.68 -8 3 C-2.25 0 -2.25 0 0 0 Z " fill="#F1F1F1" transform="translate(317,228)"/>
<path d="M0 0 C0.66 0 1.32 0 2 0 C2 1.32 2 2.64 2 4 C3.093125 4.020625 4.18625 4.04125 5.3125 4.0625 C7.1378125 4.5265625 7.1378125 4.5265625 9 5 C11.61447235 9.85280599 12.55134736 14.2475515 13.1875 19.75 C13.30810791 20.78737305 13.30810791 20.78737305 13.43115234 21.84570312 C14.05313834 27.56956573 14.2194919 33.24443468 14 39 C13.34 39 12.68 39 12 39 C11.67 38.34 11.34 37.68 11 37 C8.97536745 36.34786708 8.97536745 36.34786708 7 36 C7 35.34 7 34.68 7 34 C4.53673288 32.3553326 4.53673288 32.3553326 2 31 C0.85185003 33.29629994 0.69230191 35.07698086 0.4375 37.625 C0.35371094 38.44226563 0.26992188 39.25953125 0.18359375 40.1015625 C0.12300781 40.72804688 0.06242187 41.35453125 0 42 C-0.33 42 -0.66 42 -1 42 C-1.10477512 36.21408489 -0.99250545 30.70690634 0 25 C0.763125 24.814375 1.52625 24.62875 2.3125 24.4375 C5.37558734 22.79910445 6.2964905 21.31159272 7.5078125 18.0859375 C8.38682558 14.36059634 8.17589192 10.81099164 8 7 C4.7 6.67 1.4 6.34 -2 6 C-3.98 8.97 -3.98 8.97 -6 12 C-6.99 11.67 -7.98 11.34 -9 11 C-8.26829419 9.65654015 -7.51394247 8.32539416 -6.75 7 C-6.33234375 6.2575 -5.9146875 5.515 -5.484375 4.75 C-4.99453125 4.1725 -4.5046875 3.595 -4 3 C-2.68 3 -1.36 3 0 3 C0 2.01 0 1.02 0 0 Z " fill="#272727" transform="translate(378,220)"/>
<path d="M0 0 C0.33 0.66 0.66 1.32 1 2 C0.67 2.99 0.34 3.98 0 5 C0.53625 4.649375 1.0725 4.29875 1.625 3.9375 C4.85463921 2.66264242 6.68944593 3.03442173 10 4 C12.375 6.0625 12.375 6.0625 14 8 C13.57405412 9.44096586 13.13373367 10.87768712 12.6875 12.3125 C12.32205078 13.51326172 12.32205078 13.51326172 11.94921875 14.73828125 C10.93291909 17.15983476 10.04975604 18.37914668 8 20 C4.625 21 4.625 21 1 21 C-2 19.125 -2 19.125 -4 16 C-4.51971719 10.19649141 -2.50660396 5.12219069 0 0 Z " fill="#3F3F3F" transform="translate(318,248)"/>
<path d="M0 0 C2.86791567 0.42153091 4.6709991 0.68956123 6.9765625 2.4375 C7.65625 4.4609375 7.65625 4.4609375 7.8515625 6.8125 C7.93148438 7.58335937 8.01140625 8.35421875 8.09375 9.1484375 C7.96222512 11.7175568 7.27136614 13.23934499 5.9765625 15.4375 C3.9965625 15.4375 2.0165625 15.4375 -0.0234375 15.4375 C-0.3534375 16.7575 -0.6834375 18.0775 -1.0234375 19.4375 C-2.8984375 19.3125 -2.8984375 19.3125 -5.0234375 18.4375 C-5.70282924 16.44178677 -6.36905309 14.44155227 -7.0234375 12.4375 C-9.02257315 11.22396475 -9.02257315 11.22396475 -11.0234375 10.4375 C-9.83887387 8.75385626 -8.6247632 7.09097286 -7.3984375 5.4375 C-6.72554688 4.509375 -6.05265625 3.58125 -5.359375 2.625 C-3.0234375 0.4375 -3.0234375 0.4375 0 0 Z " fill="#F4F4F4" transform="translate(379.0234375,224.5625)"/>
<path d="M0 0 C0.66 0.33 1.32 0.66 2 1 C1.67 1.66 1.34 2.32 1 3 C0.53486936 9.3476652 1.26351948 15.70046123 2 22 C2.75925781 21.97679687 3.51851563 21.95359375 4.30078125 21.9296875 C5.29464844 21.91164062 6.28851563 21.89359375 7.3125 21.875 C8.29863281 21.85179687 9.28476562 21.82859375 10.30078125 21.8046875 C13 22 13 22 16 24 C15.67 24.99 15.34 25.98 15 27 C11.37 27 7.74 27 4 27 C3.67 27.66 3.34 28.32 3 29 C3.99 29 4.98 29 6 29 C6 29.66 6 30.32 6 31 C7.98 31 9.96 31 12 31 C12 34.63 12 38.26 12 42 C8.7 41.67 5.4 41.34 2 41 C1.87882812 39.51628906 1.75765625 38.03257812 1.6328125 36.50390625 C1.46386024 34.5234103 1.29457148 32.54294303 1.125 30.5625 C1.04636719 29.58861328 0.96773438 28.61472656 0.88671875 27.61132812 C0.42186941 22.2655607 -0.26772629 17.14790411 -1.57763672 11.94067383 C-2.23811481 8.90591064 -2.24661113 6.08263912 -2 3 C-1.34 2.01 -0.68 1.02 0 0 Z " fill="#7B7B7B" transform="translate(336,208)"/>
<path d="M0 0 C0.68000722 3.95615901 1.34151743 7.91520618 2 11.875 C2.19078125 12.98359375 2.3815625 14.0921875 2.578125 15.234375 C3.92869496 23.43426402 5.1783909 31.83103413 3 40 C3.99 40.33 4.98 40.66 6 41 C4.515 41.495 4.515 41.495 3 42 C3 45.63 3 49.26 3 53 C2.34 52.67 1.68 52.34 1 52 C0.375 48.9375 0.375 48.9375 0 46 C-0.99 46.495 -0.99 46.495 -2 47 C-1.50232687 43.68217915 -0.87685711 40.58804717 0.0859375 37.3671875 C1.28048661 32.63037015 0.87618135 28.42540109 0.25 23.625 C0.15219238 22.79226562 0.05438477 21.95953125 -0.04638672 21.1015625 C-0.67469649 15.95444882 -1.45944852 10.866991 -2.6328125 5.8125 C-3 4 -3 4 -3 1 C-1 0 -1 0 0 0 Z " fill="#272727" transform="translate(334,210)"/>
<path d="M0 0 C5.28 0 10.56 0 16 0 C17.94662362 1.94662362 17.18736396 5.63153491 17.203125 8.2890625 C17.20882507 9.02571136 17.21452515 9.76236023 17.22039795 10.52133179 C17.22986622 12.08663491 17.23638915 13.65195812 17.24023438 15.21728516 C17.24987605 17.59444016 17.28085349 19.9707068 17.3125 22.34765625 C17.31903645 23.86978654 17.32428439 25.39192302 17.328125 26.9140625 C17.3404718 27.61850494 17.3528186 28.32294739 17.36553955 29.04873657 C17.34297325 34.13895252 16.21118523 37.52435676 14 42 C13.67 41.34 13.34 40.68 13 40 C13.33 39.01 13.66 38.02 14 37 C14.15346953 34.34393699 14.25717898 31.70904905 14.31640625 29.05078125 C14.33718735 28.27816452 14.35796844 27.50554779 14.37937927 26.70951843 C14.44471038 24.2439352 14.50368315 21.77824639 14.5625 19.3125 C14.60570087 17.63996309 14.64931566 15.96743681 14.69335938 14.29492188 C14.8003749 10.1967225 14.90168857 6.09841704 15 2 C10.38 2 5.76 2 1 2 C1 12.56 1 23.12 1 34 C0.67 34 0.34 34 0 34 C0 22.78 0 11.56 0 0 Z " fill="#959595" transform="translate(237,304)"/>
<path d="M0 0 C1.95803507 -0.05389087 3.91648909 -0.09274217 5.875 -0.125 C7.51082031 -0.15980469 7.51082031 -0.15980469 9.1796875 -0.1953125 C12 0 12 0 14 2 C14.3125 5 14.3125 5 14 8 C10.57905758 10.28062828 9.31812778 10.21925007 5.3125 10.125 C3.82169922 10.09792969 3.82169922 10.09792969 2.30078125 10.0703125 C1.54152344 10.04710937 0.78226562 10.02390625 0 10 C0 6.7 0 3.4 0 0 Z " fill="#EBEBEB" transform="translate(318,334)"/>
<path d="M0 0 C3.80297159 2.42007283 5.9880524 4.9761048 8 9 C8 9.66 8 10.32 8 11 C7.34 11 6.68 11 6 11 C6 11.99 6 12.98 6 14 C5.4225 14.020625 4.845 14.04125 4.25 14.0625 C1.1295376 15.36269267 0.32958827 17.32728274 -1.265625 20.2109375 C-2.18986683 22.14022772 -2.18986683 22.14022772 -2 25 C-2.66 25.99 -3.32 26.98 -4 28 C-3.01 28.33 -2.02 28.66 -1 29 C-2.32 29.33 -3.64 29.66 -5 30 C-6.18652829 26.04490571 -6.11284129 23.60086944 -4.375 19.9375 C-2.86051853 17.15212498 -1.57711772 15.58672868 0.75 13.3125 C3.19934538 11.20512351 3.19934538 11.20512351 3.5625 8.375 C3.18081054 5.92295442 3.18081054 5.92295442 1.4375 4.25 C-1.67613658 2.65326329 -4.53885353 2.33280254 -8 2 C-8.4021875 3.2684375 -8.4021875 3.2684375 -8.8125 4.5625 C-10.0478595 8.13854067 -11.476988 11.53860908 -13 15 C-14.27099045 11.18702864 -13.45398157 9.6732166 -12 6 C-11.34 5.01 -10.68 4.02 -10 3 C-10.66 2.34 -11.32 1.68 -12 1 C-7.66217778 -1.23463569 -4.70996826 -1.17749207 0 0 Z " fill="#5F5F5F" transform="translate(372,209)"/>
<path d="M0 0 C1.79133978 -0.05391993 3.58313899 -0.09275571 5.375 -0.125 C6.37273437 -0.14820313 7.37046875 -0.17140625 8.3984375 -0.1953125 C11 0 11 0 13 2 C13.125 5.625 13.125 5.625 13 9 C10.35541621 10.32229189 8.32238699 10.09677194 5.375 10.0625 C4.37210937 10.05347656 3.36921875 10.04445313 2.3359375 10.03515625 C1.56507813 10.02355469 0.79421875 10.01195312 0 10 C0 6.7 0 3.4 0 0 Z " fill="#D4D4D4" transform="translate(317,315)"/>
<path d="M0 0 C1.79133978 -0.05391993 3.58313899 -0.09275571 5.375 -0.125 C6.37273438 -0.14820313 7.37046875 -0.17140625 8.3984375 -0.1953125 C11 0 11 0 13 2 C13.375 4.4375 13.375 4.4375 13 7 C11.5625 8.8125 11.5625 8.8125 9 10 C5.95203989 10.2413187 3.0673978 10.13532637 0 10 C0 6.7 0 3.4 0 0 Z " fill="#ECECEC" transform="translate(637,315)"/>
<path d="M0 0 C0.33 0 0.66 0 1 0 C1.16803421 2.91659375 1.33447967 5.83326342 1.5 8.75 C1.54769531 9.575 1.59539062 10.4 1.64453125 11.25 C1.68964844 12.04921875 1.73476563 12.8484375 1.78125 13.671875 C1.8440918 14.77160645 1.8440918 14.77160645 1.90820312 15.89355469 C1.99683338 17.92733614 2 19.96428825 2 22 C1.34 22 0.68 22 0 22 C-0.33 21.34 -0.66 20.68 -1 20 C-3.02463255 19.34786708 -3.02463255 19.34786708 -5 19 C-5 18.34 -5 17.68 -5 17 C-7.46326712 15.3553326 -7.46326712 15.3553326 -10 14 C-9.62492618 11.28071483 -9.15781339 10.15781339 -7.1875 8.1875 C-5 7 -5 7 -2.75 7.3125 C-2.1725 7.539375 -1.595 7.76625 -1 8 C-0.67 5.36 -0.34 2.72 0 0 Z " fill="#545454" transform="translate(390,237)"/>
<path d="M0 0 C0 1.66666667 0 3.33333333 0 5 C0.66 5 1.32 5 2 5 C2 8.3 2 11.6 2 15 C-0.97 14.67 -3.94 14.34 -7 14 C-7 9.71 -7 5.42 -7 1 C-4.53721199 -0.231394 -2.7204945 -0.07159196 0 0 Z " fill="#666666" transform="translate(358,250)"/>
<path d="M0 0 C2 3 2 3 1.625 5.1875 C1.41875 5.785625 1.2125 6.38375 1 7 C0.34 6.01 -0.32 5.02 -1 4 C-1.66 4 -2.32 4 -3 4 C-3 5.32 -3 6.64 -3 8 C-4.32 8.33 -5.64 8.66 -7 9 C-6.67 10.32 -6.34 11.64 -6 13 C-6.99 12.34 -7.98 11.68 -9 11 C-9 10.34 -9 9.68 -9 9 C-10.65 9 -12.3 9 -14 9 C-14.33 7.35 -14.66 5.7 -15 4 C-9.81108673 0.77445932 -6.19063068 -0.45022769 0 0 Z " fill="#EAEAEA" transform="translate(330,211)"/>
<path d="M0 0 C0.70189453 0.14759766 1.40378906 0.29519531 2.12695312 0.44726562 C3.85694194 0.8120932 5.58492963 1.18638689 7.3125 1.5625 C7.3125 2.2225 7.3125 2.8825 7.3125 3.5625 C1.5625 6.5625 1.5625 6.5625 -0.6875 6.5625 C-0.6875 7.2225 -0.6875 7.8825 -0.6875 8.5625 C-2.6675 8.8925 -4.6475 9.2225 -6.6875 9.5625 C-7.35904933 8.27336513 -8.02458859 6.98109796 -8.6875 5.6875 C-9.05875 4.96820313 -9.43 4.24890625 -9.8125 3.5078125 C-10.6875 1.5625 -10.6875 1.5625 -10.6875 -0.4375 C-6.81351645 -1.72882785 -3.86761214 -0.84863572 0 0 Z " fill="#898989" transform="translate(300.6875,251.4375)"/>
<path d="M0 0 C4 0 4 0 5.75 1.5 C7.56114514 5.12229029 7.20127966 7.97440681 7 12 C-0.32215357 12.36010591 -0.32215357 12.36010591 -3 10.9375 C-4.52690415 7.97912322 -4.18468872 5.26283401 -4 2 C-2.02 2.66 -0.04 3.32 2 4 C1.34 2.68 0.68 1.36 0 0 Z " fill="#888888" transform="translate(341,251)"/>
<path d="M0 0 C0.33 0.66 0.66 1.32 1 2 C-0.97233721 6.05424872 -3.65901948 9.00168415 -7 12 C-7.66 12 -8.32 12 -9 12 C-9 12.66 -9 13.32 -9 14 C-15.6 13.67 -22.2 13.34 -29 13 C-29 10.36 -29 7.72 -29 5 C-28.34 4.67 -27.68 4.34 -27 4 C-26.5978125 4.928125 -26.5978125 4.928125 -26.1875 5.875 C-25.04443152 8.2995233 -25.04443152 8.2995233 -22 10 C-19.49103314 10.45601261 -19.49103314 10.45601261 -16.8125 10.625 C-15.91144531 10.69976562 -15.01039063 10.77453125 -14.08203125 10.8515625 C-13.39496094 10.90054688 -12.70789063 10.94953125 -12 11 C-12 10.34 -12 9.68 -12 9 C-10.906875 8.731875 -9.81375 8.46375 -8.6875 8.1875 C-4.3032143 6.77561139 -2.95153032 5.75281902 -0.8125 1.8125 C-0.544375 1.214375 -0.27625 0.61625 0 0 Z " fill="#939393" transform="translate(319,235)"/>
<path d="M0 0 C0.99 0 1.98 0 3 0 C3 0.66 3 1.32 3 2 C4.98 2 6.96 2 9 2 C9 5.63 9 9.26 9 13 C5.7 12.67 2.4 12.34 -1 12 C-0.67 8.04 -0.34 4.08 0 0 Z " fill="#8C8C8C" transform="translate(339,237)"/>
<path d="M0 0 C0.3125 3.25 0.3125 3.25 0 7 C-2.0625 9.4375 -2.0625 9.4375 -5 11 C-8.8125 11.25 -8.8125 11.25 -12 11 C-12.28875 10.360625 -12.5775 9.72125 -12.875 9.0625 C-13.82823451 6.84793921 -13.82823451 6.84793921 -16 6 C-13.36 5.67 -10.72 5.34 -8 5 C-8 4.34 -8 3.68 -8 3 C-2.25 0 -2.25 0 0 0 Z " fill="#7C7C7C" transform="translate(317,228)"/>
<path d="M0 0 C2.97 0 5.94 0 9 0 C10.00496852 4.01987409 9.93017724 6.6646973 9.5625 10.75 C9.46066406 11.92046875 9.35882813 13.0909375 9.25390625 14.296875 C9.17011719 15.18890625 9.08632813 16.0809375 9 17 C8.01 17 7.02 17 6 17 C5.67 17.66 5.34 18.32 5 19 C5 18.34 5 17.68 5 17 C4.01 17.33 3.02 17.66 2 18 C2.33 18.99 2.66 19.98 3 21 C0.13275314 20.42655063 -0.8614515 20.1385485 -3 18 C-2.34 17.67 -1.68 17.34 -1 17 C-1.66 16.67 -2.32 16.34 -3 16 C-3 14.35 -3 12.7 -3 11 C-2.67 12.32 -2.34 13.64 -2 15 C-0.081875 14.9690625 -0.081875 14.9690625 1.875 14.9375 C5.75 14.875 5.75 14.875 8 16 C7.67 12.7 7.34 9.4 7 6 C5.35 5.67 3.7 5.34 2 5 C2 4.34 2 3.68 2 3 C1.01 3 0.02 3 -1 3 C-0.67 2.01 -0.34 1.02 0 0 Z " fill="#6D6D6D" transform="translate(340,234)"/>
<path d="M0 0 C2.625 0.375 2.625 0.375 5 1 C5.144375 2.093125 5.28875 3.18625 5.4375 4.3125 C5.88288104 7.93122987 5.88288104 7.93122987 7 11 C5 13 5 13 1.875 13.125 C0.451875 13.063125 0.451875 13.063125 -1 13 C-2.17673198 10.64653604 -2.16623866 9.1193967 -2.1875 6.5 C-2.20167969 5.7059375 -2.21585937 4.911875 -2.23046875 4.09375 C-2 2 -2 2 0 0 Z " fill="#545454" transform="translate(369,256)"/>
<path d="M0 0 C1.65 0.33 3.3 0.66 5 1 C5.33 2.98 5.66 4.96 6 7 C7.32 7.33 8.64 7.66 10 8 C10.33 6.35 10.66 4.7 11 3 C13.97 3.495 13.97 3.495 17 4 C15.93277615 6.91061051 15.36086255 7.82859029 12.5 9.1875 C11.675 9.455625 10.85 9.72375 10 10 C9.01 10.495 9.01 10.495 8 11 C7.34 10.34 6.68 9.68 6 9 C5.01 9.33 4.02 9.66 3 10 C3 9.34 3 8.68 3 8 C2.34 8 1.68 8 1 8 C1 8.66 1 9.32 1 10 C0.34 10 -0.32 10 -1 10 C-1.125 3.375 -1.125 3.375 0 0 Z " fill="#AEAEAE" transform="translate(368,236)"/>
<path d="M0 0 C1.32 0.66 2.64 1.32 4 2 C3.25 8.625 3.25 8.625 1 12 C-1.96175123 11.38722388 -3.38058783 10.74627478 -6 9 C-5.125 3.25 -5.125 3.25 -4 1 C-3.34 1 -2.68 1 -2 1 C-1.34 1.66 -0.68 2.32 0 3 C0 2.01 0 1.02 0 0 Z " fill="#888888" transform="translate(324,253)"/>
<path d="M0 0 C0.66 0 1.32 0 2 0 C2 5.94 2 11.88 2 18 C3.32 18.33 4.64 18.66 6 19 C5.01 19.66 4.02 20.32 3 21 C2.63539547 23.66653905 2.63539547 23.66653905 2.8125 26.625 C2.83957031 27.62789063 2.86664063 28.63078125 2.89453125 29.6640625 C2.92933594 30.43492187 2.96414063 31.20578125 3 32 C4.98 32 6.96 32 9 32 C9 32.33 9 32.66 9 33 C6.69 33 4.38 33 2 33 C0.71553081 30.43106162 0.67022856 28.23423663 0.4375 25.375 C0.35371094 24.37210937 0.26992188 23.36921875 0.18359375 22.3359375 C0.12300781 21.56507813 0.06242187 20.79421875 0 20 C-0.33 22.97 -0.66 25.94 -1 29 C-1.33 29 -1.66 29 -2 29 C-2.02727678 26.02076997 -2.04697128 23.04179621 -2.0625 20.0625 C-2.07087891 19.23169922 -2.07925781 18.40089844 -2.08789062 17.54492188 C-2.10966714 11.94835769 -1.78740664 6.54488451 -1 1 C-0.67 0.67 -0.34 0.34 0 0 Z " fill="#353535" transform="translate(365,237)"/>
<path d="M0 0 C1.56393356 3.97376829 0.36145292 6.81377903 -0.9375 10.75 C-1.31777344 11.92046875 -1.69804687 13.0909375 -2.08984375 14.296875 C-2.39019531 15.18890625 -2.69054687 16.0809375 -3 17 C-4.32 16.01 -5.64 15.02 -7 14 C-6.67 12.35 -6.34 10.7 -6 9 C-6.99 8.34 -7.98 7.68 -9 7 C-9 6.34 -9 5.68 -9 5 C-7.68 5 -6.36 5 -5 5 C-5 4.01 -5 3.02 -5 2 C-4.01 1.67 -3.02 1.34 -2 1 C-1.34 1.33 -0.68 1.66 0 2 C0 1.34 0 0.68 0 0 Z " fill="#8B8B8B" transform="translate(335,239)"/>
<path d="M0 0 C0.66 0 1.32 0 2 0 C2 1.32 2 2.64 2 4 C4.31 4.33 6.62 4.66 9 5 C11.53621878 10.4951407 10.7237157 14.43962677 9 20 C8.67 20.66 8.34 21.32 8 22 C7.34 21.67 6.68 21.34 6 21 C6.33 20.360625 6.66 19.72125 7 19.0625 C8.3584273 14.90231641 8.13042254 11.36915502 8 7 C4.7 6.67 1.4 6.34 -2 6 C-3.98 8.97 -3.98 8.97 -6 12 C-6.99 11.67 -7.98 11.34 -9 11 C-8.26829419 9.65654015 -7.51394247 8.32539416 -6.75 7 C-6.33234375 6.2575 -5.9146875 5.515 -5.484375 4.75 C-4.99453125 4.1725 -4.5046875 3.595 -4 3 C-2.68 3 -1.36 3 0 3 C0 2.01 0 1.02 0 0 Z " fill="#353535" transform="translate(378,220)"/>
<path d="M0 0 C0.66 0.33 1.32 0.66 2 1 C1.360625 1.556875 0.72125 2.11375 0.0625 2.6875 C-2.19680987 5.22066561 -2.63149047 6.68341424 -3 10 C-3.66 10 -4.32 10 -5 10 C-5 9.34 -5 8.68 -5 8 C-6.5778125 8.0928125 -6.5778125 8.0928125 -8.1875 8.1875 C-12.19113117 7.99060011 -13.89973887 7.46197207 -17 5 C-17.33 4.01 -17.66 3.02 -18 2 C-10.575 2.99 -10.575 2.99 -3 4 C-3 3.34 -3 2.68 -3 2 C-2.01 1.34 -1.02 0.68 0 0 Z " fill="#2A2A2A" transform="translate(313,245)"/>
<path d="M0 0 C2.6261635 1.41783595 3.97311834 2.74790927 6 5 C5.67 5.66 5.34 6.32 5 7 C4.34 7 3.68 7 3 7 C2.505 6.34 2.01 5.68 1.5 5 C-1.86905632 2.30475494 -4.2998401 2.37941888 -8.5234375 2.53515625 C-12.51670185 3.28468063 -14.22453875 5.08576569 -17 8 C-17.66 8.66 -18.32 9.32 -19 10 C-19 6 -19 6 -17.890625 4.296875 C-12.53874895 -0.74917956 -7.14661825 -1.37396948 0 0 Z " fill="#565656" transform="translate(353,201)"/>
<path d="M0 0 C0.33 0.99 0.66 1.98 1 3 C1.66 3 2.32 3 3 3 C3 3.66 3 4.32 3 5 C0.36 5.33 -2.28 5.66 -5 6 C-5 6.99 -5 7.98 -5 9 C-6.65 9 -8.3 9 -10 9 C-10 9.66 -10 10.32 -10 11 C-11.11375 10.690625 -11.11375 10.690625 -12.25 10.375 C-15.32330841 9.95591249 -16.42786866 10.38050989 -19 12 C-16.5268054 7.78102098 -13.44421673 6.74594229 -9 5 C-8.01 4.34 -7.02 3.68 -6 3 C-2.8125 2.875 -2.8125 2.875 0 3 C0 2.01 0 1.02 0 0 Z " fill="#353535" transform="translate(306,228)"/>
<path d="M0 0 C1.37478516 0.01740234 1.37478516 0.01740234 2.77734375 0.03515625 C3.69644531 0.04417969 4.61554688 0.05320313 5.5625 0.0625 C6.27277344 0.07410156 6.98304688 0.08570313 7.71484375 0.09765625 C8.04484375 2.07765625 8.37484375 4.05765625 8.71484375 6.09765625 C7.06484375 6.09765625 5.41484375 6.09765625 3.71484375 6.09765625 C3.71484375 6.75765625 3.71484375 7.41765625 3.71484375 8.09765625 C1.73484375 8.09765625 -0.24515625 8.09765625 -2.28515625 8.09765625 C-2.28515625 7.10765625 -2.28515625 6.11765625 -2.28515625 5.09765625 C-1.62515625 4.76765625 -0.96515625 4.43765625 -0.28515625 4.09765625 C-1.11848958 1.93098958 -1.11848958 1.93098958 -3.28515625 1.09765625 C-2.28515625 0.09765625 -2.28515625 0.09765625 0 0 Z " fill="#939393" transform="translate(344.28515625,202.90234375)"/>
<path d="M0 0 C0.66 0.33 1.32 0.66 2 1 C1.57405412 2.44096586 1.13373367 3.87768712 0.6875 5.3125 C0.44386719 6.11300781 0.20023437 6.91351563 -0.05078125 7.73828125 C-1.06990617 10.16656656 -1.92027017 11.40020782 -4 13 C-7.6875 13.6875 -7.6875 13.6875 -11 14 C-11.66 12.68 -12.32 11.36 -13 10 C-12.34 10 -11.68 10 -11 10 C-11.33 9.01 -11.66 8.02 -12 7 C-11.401875 7.33 -10.80375 7.66 -10.1875 8 C-7.94613529 9.20787988 -7.94613529 9.20787988 -5 9 C-2.34105893 6.18465063 -0.57363911 3.87206399 0 0 Z " fill="#515151" transform="translate(330,255)"/>
<path d="M0 0 C2.3125 -0.3125 2.3125 -0.3125 5 0 C7.82572228 3.69517529 8.43551014 6.7262846 8.6875 11.3125 C8.78611328 12.91544922 8.78611328 12.91544922 8.88671875 14.55078125 C8.92410156 15.35902344 8.96148437 16.16726563 9 17 C8.01 16.67 7.02 16.34 6 16 C4.60560336 15.93334624 3.20830125 15.91461801 1.8125 15.9375 C0.554375 15.958125 -0.70375 15.97875 -2 16 C-2.33 15.01 -2.66 14.02 -3 13 C-0.03 13.33 2.94 13.66 6 14 C6 10.7 6 7.4 6 4 C5.34 4 4.68 4 4 4 C3.67 3.34 3.34 2.68 3 2 C2.01 1.34 1.02 0.68 0 0 Z " fill="#535353" transform="translate(354,251)"/>
<path d="M0 0 C0.99 1.32 1.98 2.64 3 4 C0.69 4 -1.62 4 -4 4 C-3.525625 4.9075 -3.05125 5.815 -2.5625 6.75 C-1 10 -1 10 -0.5 12.3125 C-0.335 12.869375 -0.17 13.42625 0 14 C0.99 14.33 1.98 14.66 3 15 C2.01 15 1.02 15 0 15 C-0.33 15.66 -0.66 16.32 -1 17 C-3.33333333 12.33333333 -5.66666667 7.66666667 -8 3 C-5.36 2.01 -2.72 1.02 0 0 Z " fill="#424242" transform="translate(294,247)"/>
<path d="M0 0 C0.33 0 0.66 0 1 0 C1.33 1.98 1.66 3.96 2 6 C2 4.02 2 2.04 2 0 C2.33 0 2.66 0 3 0 C3.33 2.31 3.66 4.62 4 7 C6.97 7.33 9.94 7.66 13 8 C9 10 9 10 6 10 C6.33 10.66 6.66 11.32 7 12 C4.6875 11.8125 4.6875 11.8125 2 11 C-0.13258157 8.35265737 -0.94177194 6.64050865 -1.25 3.25 C-1 1 -1 1 0 0 Z " fill="#515151" transform="translate(334,255)"/>
<path d="M0 0 C1.4606285 2.64738916 2 3.89448334 2 7 C2.99 7.33 3.98 7.66 5 8 C4.01 8.33 3.02 8.66 2 9 C2 12.63 2 16.26 2 20 C1.34 19.67 0.68 19.34 0 19 C-0.625 15.9375 -0.625 15.9375 -1 13 C-1.99 13.495 -1.99 13.495 -3 14 C-2.28547412 9.23649415 -1.20465156 4.65798604 0 0 Z " fill="#2D2D2D" transform="translate(335,243)"/>
<path d="M0 0 C3.375 -0.1875 3.375 -0.1875 7 0 C9 3 9 3 8.625 5.1875 C8.41875 5.785625 8.2125 6.38375 8 7 C7.34 6.01 6.68 5.02 6 4 C5.34 4 4.68 4 4 4 C4 4.99 4 5.98 4 7 C2.35 7 0.7 7 -1 7 C-0.67 4.69 -0.34 2.38 0 0 Z " fill="#A2A2A2" transform="translate(323,211)"/>
<path d="M0 0 C0.66 0.33 1.32 0.66 2 1 C1.2169216 3.14898232 0.42328757 5.29412095 -0.375 7.4375 C-0.81585938 8.63246094 -1.25671875 9.82742187 -1.7109375 11.05859375 C-3 14 -3 14 -5 15 C-5.33 13.02 -5.66 11.04 -6 9 C-6.66 9 -7.32 9 -8 9 C-7.67 7.68 -7.34 6.36 -7 5 C-5.68 5 -4.36 5 -3 5 C-1.21030974 2.57327433 -1.21030974 2.57327433 0 0 Z " fill="#979797" transform="translate(366,230)"/>
<path d="M0 0 C7.92 0.33 15.84 0.66 24 1 C23.67 1.66 23.34 2.32 23 3 C19.91684615 3.08733513 16.83401173 3.14050127 13.75 3.1875 C12.87730469 3.21263672 12.00460938 3.23777344 11.10546875 3.26367188 C9.83896484 3.27817383 9.83896484 3.27817383 8.546875 3.29296875 C7.38430176 3.31653442 7.38430176 3.31653442 6.19824219 3.34057617 C4 3 4 3 0 0 Z " fill="#5A5A5A" transform="translate(216,353)"/>
<path d="M0 0 C0.99 0.33 1.98 0.66 3 1 C3 3.97 3 6.94 3 10 C1.35 9.67 -0.3 9.34 -2 9 C-2.125 5.625 -2.125 5.625 -2 2 C-1.34 1.34 -0.68 0.68 0 0 Z " fill="#9F9F9F" transform="translate(369,256)"/>
<path d="M0 0 C1.77049689 -0.05410687 3.54146849 -0.09284119 5.3125 -0.125 C6.29863281 -0.14820313 7.28476562 -0.17140625 8.30078125 -0.1953125 C11 0 11 0 14 2 C13.67 2.99 13.34 3.98 13 5 C8.71 4.34 4.42 3.68 0 3 C0 2.01 0 1.02 0 0 Z " fill="#8F8F8F" transform="translate(338,230)"/>
<path d="M0 0 C0.86625 0.3403125 0.86625 0.3403125 1.75 0.6875 C1.75 3.3275 1.75 5.9675 1.75 8.6875 C1.09 8.3575 0.43 8.0275 -0.25 7.6875 C-0.25 7.0275 -0.25 6.3675 -0.25 5.6875 C-2.23 5.6875 -4.21 5.6875 -6.25 5.6875 C-6.25 4.6975 -6.25 3.7075 -6.25 2.6875 C-4.08146295 0.51896295 -3.10906228 -0.43181421 0 0 Z " fill="#8F8F8F" transform="translate(387.25,244.3125)"/>
<path d="M0 0 C0 1.65 0 3.3 0 5 C-2.57213134 6.61949011 -3.67669159 7.04408751 -6.75 6.625 C-7.4925 6.41875 -8.235 6.2125 -9 6 C-9 5.01 -9 4.02 -9 3 C-7.68 3 -6.36 3 -5 3 C-5 2.34 -5 1.68 -5 1 C-3 0 -3 0 0 0 Z " fill="#DDDDDD" transform="translate(314,230)"/>
<path d="M0 0 C1.98 0.495 1.98 0.495 4 1 C4 3.64 4 6.28 4 9 C2.35 9 0.7 9 -1 9 C-1.125 2.25 -1.125 2.25 0 0 Z " fill="#BABABA" transform="translate(344,254)"/>
<path d="M0 0 C0.721875 0.78375 1.44375 1.5675 2.1875 2.375 C4.83299041 4.84412438 6.60373611 5.93260278 10 7 C10 7.66 10 8.32 10 9 C6.37 9 2.74 9 -1 9 C-1.09765625 2.84765625 -1.09765625 2.84765625 -1 1 C-0.67 0.67 -0.34 0.34 0 0 Z " fill="#828282" transform="translate(291,239)"/>
<path d="M0 0 C1.32 0.66 2.64 1.32 4 2 C3.125 8.75 3.125 8.75 2 11 C1.01 11 0.02 11 -1 11 C-1.14285714 3.57142857 -1.14285714 3.57142857 0 0 Z " fill="#A7A7A7" transform="translate(324,253)"/>
<path d="M0 0 C0.66 0.66 1.32 1.32 2 2 C1.34 2 0.68 2 0 2 C-0.33 2.66 -0.66 3.32 -1 4 C-1 3.34 -1 2.68 -1 2 C-2.15628906 2.25136719 -2.15628906 2.25136719 -3.3359375 2.5078125 C-4.33882813 2.71148437 -5.34171875 2.91515625 -6.375 3.125 C-7.37273437 3.33382812 -8.37046875 3.54265625 -9.3984375 3.7578125 C-10.25695312 3.83773437 -11.11546875 3.91765625 -12 4 C-12.66 3.34 -13.32 2.68 -14 2 C-8.83373572 -0.63584912 -5.84069543 -1.48880472 0 0 Z " fill="#545454" transform="translate(331,209)"/>
<path d="M0 0 C0.33 1.32 0.66 2.64 1 4 C3.64 4 6.28 4 9 4 C9.33 4.66 9.66 5.32 10 6 C9.34 6.66 8.68 7.32 8 8 C8 7.34 8 6.68 8 6 C7.01 6.33 6.02 6.66 5 7 C5.33 7.99 5.66 8.98 6 10 C3.13275314 9.42655063 2.1385485 9.1385485 0 7 C0.66 6.67 1.32 6.34 2 6 C1.34 5.67 0.68 5.34 0 5 C0 3.35 0 1.7 0 0 Z " fill="#4A4A4A" transform="translate(337,245)"/>
<path d="M0 0 C0.33 0 0.66 0 1 0 C1.27853778 3.15676145 1.13433429 4.76053453 -0.4375 7.5625 C-2.71033826 12.56274417 -2.74491118 17.56396926 -3 23 C-3.33 23 -3.66 23 -4 23 C-4.43995881 14.40858218 -4.46309065 7.53146548 0 0 Z " fill="#202020" transform="translate(353,229)"/>
<path d="M0 0 C0 0.66 0 1.32 0 2 C-1.65071396 3.02611949 -3.31970006 4.02308143 -5 5 C-6.75149165 6.58245275 -6.75149165 6.58245275 -8 8 C-8 7.34 -8 6.68 -8 6 C-8.9075 6.350625 -9.815 6.70125 -10.75 7.0625 C-14.00591313 8.00170571 -14.92749994 7.95514676 -18 7 C-17.09636719 6.66226562 -16.19273437 6.32453125 -15.26171875 5.9765625 C-14.08222656 5.53054688 -12.90273438 5.08453125 -11.6875 4.625 C-9.92986328 3.96371094 -9.92986328 3.96371094 -8.13671875 3.2890625 C-0.13333333 0 -0.13333333 0 0 0 Z " fill="#A7A7A7" transform="translate(389,404)"/>
<path d="M0 0 C0.66 0.33 1.32 0.66 2 1 C-1.26088466 5.89132699 -4.33867137 9.42270128 -9 13 C-9.66 12.67 -10.32 12.34 -11 12 C-3.70159453 3.55353075 -3.70159453 3.55353075 0 0 Z " fill="#3C3C3C" transform="translate(288,266)"/>
<path d="M0 0 C0.99 0 1.98 0 3 0 C3 2.97 3 5.94 3 9 C1.68 9 0.36 9 -1 9 C-1.09765625 2.84765625 -1.09765625 2.84765625 -1 1 C-0.67 0.67 -0.34 0.34 0 0 Z " fill="#C9C9C9" transform="translate(357,256)"/>
<path d="M0 0 C1.32 0 2.64 0 4 0 C4 2.64 4 5.28 4 8 C2.35 7.67 0.7 7.34 -1 7 C-0.67 4.69 -0.34 2.38 0 0 Z " fill="#8B8B8B" transform="translate(352,257)"/>
<path d="M0 0 C0.66 0 1.32 0 2 0 C2.36629408 4.27343092 1.40814077 6.48812804 -1 10 C-2.65 9.67 -4.3 9.34 -6 9 C-5.38125 8.443125 -4.7625 7.88625 -4.125 7.3125 C-1.93893621 4.93354822 -1.01214301 3.03642904 0 0 Z " fill="#DFDFDF" transform="translate(318,230)"/>
<path d="M0 0 C2.22909871 -0.02714735 4.45829367 -0.04646254 6.6875 -0.0625 C7.92886719 -0.07410156 9.17023438 -0.08570312 10.44921875 -0.09765625 C13.46235454 -0.01478673 16.08275339 0.29160551 19 1 C18.67 1.66 18.34 2.32 18 3 C15.93722893 2.85805236 13.87478969 2.71127784 11.8125 2.5625 C10.66394531 2.48128906 9.51539063 2.40007812 8.33203125 2.31640625 C5.48401829 2.04596188 2.78789518 1.62478253 0 1 C0 0.67 0 0.34 0 0 Z " fill="#EFEFEF" transform="translate(464,77)"/>
<path d="M0 0 C2 2 2 2 2.1875 5.875 C2.120382 8.71460774 1.90494365 11.28516905 1 14 C2.98 14 4.96 14 7 14 C7 14.33 7 14.66 7 15 C4.36 15.33 1.72 15.66 -1 16 C-1.08201745 11.81710991 -0.88241293 8.0811598 0 4 C0 2.68 0 1.36 0 0 Z " fill="#999999" transform="translate(324,224)"/>
<path d="M0 0 C0.94875 0.04125 1.8975 0.0825 2.875 0.125 C2.25625 0.3725 1.6375 0.62 1 0.875 C-1.55003925 2.37502309 -1.88722348 3.4947249 -3.125 6.125 C-5.685133 9.11182184 -7.31270828 10.33542494 -11.125 11.125 C-10.16954634 9.66477837 -9.21053322 8.20688532 -8.25 6.75 C-7.71632813 5.93789062 -7.18265625 5.12578125 -6.6328125 4.2890625 C-3.74888592 0.14995544 -3.74888592 0.14995544 0 0 Z " fill="#CDCDCD" transform="translate(379.125,224.875)"/>
<path d="M0 0 C0.3125 2.3125 0.3125 2.3125 0 5 C-2.3125 6.875 -2.3125 6.875 -5 8 C-5.99 7.67 -6.98 7.34 -8 7 C-7.34 5.68 -6.68 4.36 -6 3 C-6 3.66 -6 4.32 -6 5 C-5.34 5 -4.68 5 -4 5 C-4 3.68 -4 2.36 -4 1 C-2 0 -2 0 0 0 Z " fill="#2A2A2A" transform="translate(316,223)"/>
<path d="M0 0 C1.9375 0.6875 1.9375 0.6875 4 2 C5.94870685 6.59338042 4.32038603 11.39673639 3 16 C2.67 16.66 2.34 17.32 2 18 C1.34 17.67 0.68 17.34 0 17 C0.33 16.360625 0.66 15.72125 1 15.0625 C2.33056928 10.98763159 2.16659199 7.24809575 2 3 C1.34 3 0.68 3 0 3 C0 2.01 0 1.02 0 0 Z " fill="#5A5A5A" transform="translate(384,224)"/>
<path d="M0 0 C0.99 0 1.98 0 3 0 C3 1.65 3 3.3 3 5 C3.598125 5.061875 4.19625 5.12375 4.8125 5.1875 C7 6 7 6 8.8125 8.375 C10 11 10 11 9 14 C6.74754119 11.31158141 5.11786042 9.35358125 4 6 C3.34 6 2.68 6 2 6 C1.34 4.02 0.68 2.04 0 0 Z " fill="#2A2A2A" transform="translate(269,370)"/>
<path d="M0 0 C0.66 0.33 1.32 0.66 2 1 C-0.55398281 5.16204606 -2.95054353 8.22931926 -7 11 C-7.66 11 -8.32 11 -9 11 C-7.59155282 7.78475695 -5.89655214 5.67816132 -3.375 3.25 C-2.74335938 2.63640625 -2.11171875 2.0228125 -1.4609375 1.390625 C-0.73777344 0.70226562 -0.73777344 0.70226562 0 0 Z " fill="#BFBFBF" transform="translate(310,287)"/>
<path d="M0 0 C0.66 0.33 1.32 0.66 2 1 C1.52269162 2.4589426 1.04308958 3.91713496 0.5625 5.375 C0.29566406 6.18710937 0.02882813 6.99921875 -0.24609375 7.8359375 C-1 10 -1 10 -2 12 C-3.65 11.67 -5.3 11.34 -7 11 C-6.57847656 10.54109375 -6.15695312 10.0821875 -5.72265625 9.609375 C-4.90087891 8.68898438 -4.90087891 8.68898438 -4.0625 7.75 C-3.51722656 7.14671875 -2.97195313 6.5434375 -2.41015625 5.921875 C-0.93787201 3.91532695 -0.42470811 2.42997551 0 0 Z " fill="#5C5C5C" transform="translate(330,255)"/>
<path d="M0 0 C4.62 0.99 9.24 1.98 14 3 C13.67 3.66 13.34 4.32 13 5 C11.20739868 4.94004678 9.41574205 4.8512759 7.625 4.75 C6.62726563 4.70359375 5.62953125 4.6571875 4.6015625 4.609375 C3.31378906 4.30773437 3.31378906 4.30773437 2 4 C1.34 2.68 0.68 1.36 0 0 Z " fill="#0A0A0A" transform="translate(295,247)"/>
<path d="M0 0 C0.99 0.33 1.98 0.66 3 1 C2.27683594 1.61488281 2.27683594 1.61488281 1.5390625 2.2421875 C0.90742188 2.78101563 0.27578125 3.31984375 -0.375 3.875 C-1.00148438 4.40867188 -1.62796875 4.94234375 -2.2734375 5.4921875 C-3.55836651 6.61432007 -4.79371975 7.79371975 -6 9 C-6 5 -6 5 -3.1875 2.1875 C-2.135625 1.465625 -1.08375 0.74375 0 0 Z " fill="#494949" transform="translate(340,202)"/>
<path d="M0 0 C2.00720923 0.28674418 4.0085944 0.61866701 6 1 C5.3125 2.9375 5.3125 2.9375 4 5 C1.375 5.75 1.375 5.75 -1 6 C-1.042721 4.33388095 -1.04063832 2.66617115 -1 1 C-0.67 0.67 -0.34 0.34 0 0 Z " fill="#8E8E8E" transform="translate(379,239)"/>
<path d="M0 0 C0.6875 1.6875 0.6875 1.6875 1 4 C-0.4375 6.75 -0.4375 6.75 -2 9 C-1.01 9.33 -0.02 9.66 1 10 C-0.32 10.33 -1.64 10.66 -3 11 C-3.75 8.3125 -3.75 8.3125 -4 5 C-2.0625 2.125 -2.0625 2.125 0 0 Z " fill="#595959" transform="translate(370,228)"/>
<path d="M0 0 C0.33 0 0.66 0 1 0 C1 1.65 1 3.3 1 5 C0.01 5.33 -0.98 5.66 -2 6 C-2.309375 6.639375 -2.61875 7.27875 -2.9375 7.9375 C-4.2342338 10.45468915 -5.4221737 10.96886948 -8 12 C-6.51272258 7.09198451 -3.55364515 3.59508707 0 0 Z " fill="#9C9C9C" transform="translate(376,218)"/>
<path d="M0 0 C2.31 0 4.62 0 7 0 C7 0.66 7 1.32 7 2 C6.34 2 5.68 2 5 2 C5 2.99 5 3.98 5 5 C3.68 5 2.36 5 1 5 C0.67 3.35 0.34 1.7 0 0 Z " fill="#676767" transform="translate(325,239)"/>
<path d="M0 0 C0 0.33 0 0.66 0 1 C-1.65 1 -3.3 1 -5 1 C-5 1.66 -5 2.32 -5 3 C-5.7425 2.79375 -6.485 2.5875 -7.25 2.375 C-10.32330841 1.95591249 -11.42786866 2.38050989 -14 4 C-11.59868421 0.27796053 -11.59868421 0.27796053 -9.25 -0.8125 C-6.07083683 -1.07743026 -3.13094675 -0.54189463 0 0 Z " fill="#6D6D6D" transform="translate(301,236)"/>
<path d="M0 0 C1.37478516 0.01740234 1.37478516 0.01740234 2.77734375 0.03515625 C3.69644531 0.04417969 4.61554688 0.05320313 5.5625 0.0625 C6.27277344 0.07410156 6.98304688 0.08570313 7.71484375 0.09765625 C7.71484375 1.08765625 7.71484375 2.07765625 7.71484375 3.09765625 C5.07484375 3.42765625 2.43484375 3.75765625 -0.28515625 4.09765625 C-0.61515625 3.43765625 -0.94515625 2.77765625 -1.28515625 2.09765625 C-1.94515625 1.76765625 -2.60515625 1.43765625 -3.28515625 1.09765625 C-2.28515625 0.09765625 -2.28515625 0.09765625 0 0 Z " fill="#C0C0C0" transform="translate(344.28515625,202.90234375)"/>
<path d="M0 0 C0.66 1.32 1.32 2.64 2 4 C-1.375 4.1875 -1.375 4.1875 -5 4 C-5.66 3.01 -6.32 2.02 -7 1 C-3.535 0.505 -3.535 0.505 0 0 Z " fill="#2C2C2C" transform="translate(360,266)"/>
<path d="M0 0 C0.99 1.32 1.98 2.64 3 4 C1.02 4.99 1.02 4.99 -1 6 C-1 7.32 -1 8.64 -1 10 C-1.66 10 -2.32 10 -3 10 C-3 8.35 -3 6.7 -3 5 C-2.34 5 -1.68 5 -1 5 C-0.67 3.35 -0.34 1.7 0 0 Z " fill="#626262" transform="translate(313,218)"/>
<path d="M0 0 C0.99 0.33 1.98 0.66 3 1 C1.35 1.33 -0.3 1.66 -2 2 C-2.33 3.65 -2.66 5.3 -3 7 C-1.68 7.33 -0.36 7.66 1 8 C-0.65 8 -2.3 8 -4 8 C-4.33 6.35 -4.66 4.7 -5 3 C-2.6875 1.4375 -2.6875 1.4375 0 0 Z " fill="#DCDCDC" transform="translate(320,212)"/>
<path d="M0 0 C1.85064908 3.70129816 0.12634 7.59868472 -1.0625 11.375 C-1.371875 12.24125 -1.68125 13.1075 -2 14 C-2.33 14 -2.66 14 -3 14 C-3.34615998 8.34605369 -2.43425238 4.96993194 0 0 Z " fill="#606060" transform="translate(318,248)"/>
<path d="M0 0 C0.66 0.33 1.32 0.66 2 1 C1.67 1.66 1.34 2.32 1 3 C1.66 3.33 2.32 3.66 3 4 C1.68 4 0.36 4 -1 4 C-1.33 4.66 -1.66 5.32 -2 6 C-2.99 5.67 -3.98 5.34 -5 5 C-4.1875 3.0625 -4.1875 3.0625 -3 1 C-2.01 0.67 -1.02 0.34 0 0 Z " fill="#E2E2E2" transform="translate(343,204)"/>
<path d="M0 0 C0.33 0.66 0.66 1.32 1 2 C2.98 2 4.96 2 7 2 C7.33 3.32 7.66 4.64 8 6 C5.69 5.34 3.38 4.68 1 4 C0.67 2.68 0.34 1.36 0 0 Z " fill="#474747" transform="translate(380,248)"/>
<path d="M0 0 C2.31 0.66 4.62 1.32 7 2 C7 2.33 7 2.66 7 3 C5.576875 3.433125 5.576875 3.433125 4.125 3.875 C0.94788422 4.76825109 0.94788422 4.76825109 -1 7 C-1.04254356 5.00045254 -1.04080783 2.99958364 -1 1 C-0.67 0.67 -0.34 0.34 0 0 Z " fill="#7C7C7C" transform="translate(353,234)"/>
<path d="M0 0 C0.99 1.32 1.98 2.64 3 4 C0.69 4 -1.62 4 -4 4 C-4.33 4.66 -4.66 5.32 -5 6 C-4.67 4.35 -4.34 2.7 -4 1 C-2.68 0.67 -1.36 0.34 0 0 Z " fill="#5F5F5F" transform="translate(294,247)"/>
<path d="M0 0 C2.31 0 4.62 0 7 0 C7.33 0.99 7.66 1.98 8 3 C5.6875 3.625 5.6875 3.625 3 4 C2.01 3.34 1.02 2.68 0 2 C0 1.34 0 0.68 0 0 Z " fill="#494949" transform="translate(340,234)"/>
<path d="M0 0 C0.66 0.33 1.32 0.66 2 1 C0.35 4.63 -1.3 8.26 -3 12 C-4.27099045 8.18702864 -3.45398157 6.6732166 -2 3 C-1.34 2.01 -0.68 1.02 0 0 Z " fill="#A2A2A2" transform="translate(362,212)"/>
<path d="M0 0 C0.33 0.99 0.66 1.98 1 3 C-5.625 4.25 -5.625 4.25 -9 2 C-5.62902617 0.50178941 -3.79557881 0 0 0 Z " fill="#636363" transform="translate(369,208)"/>
<path d="M0 0 C0.5534764 2.07553648 1 3.84365964 1 6 C-0.65 6 -2.3 6 -4 6 C-4 5.01 -4 4.02 -4 3 C-2 1.3125 -2 1.3125 0 0 Z " fill="#7A7A7A" transform="translate(385,244)"/>
<path d="M0 0 C4.73101266 2.42616034 4.73101266 2.42616034 5.9375 5 C6 7 6 7 4 10 C4 8.02 4 6.04 4 4 C3.34 4 2.68 4 2 4 C1.67 4.66 1.34 5.32 1 6 C0.67 4.02 0.34 2.04 0 0 Z " fill="#494949" transform="translate(316,226)"/>
<path d="M0 0 C2 3.75 2 3.75 2 6 C0.35 6.66 -1.3 7.32 -3 8 C-1.125 1.125 -1.125 1.125 0 0 Z " fill="#121212" transform="translate(332,257)"/>
<path d="M0 0 C0.66 0.33 1.32 0.66 2 1 C0.68 2.65 -0.64 4.3 -2 6 C-3.32 5.67 -4.64 5.34 -6 5 C-5.01 4.67 -4.02 4.34 -3 4 C-3 3.34 -3 2.68 -3 2 C-2.01 1.34 -1.02 0.68 0 0 Z " fill="#B6B6B6" transform="translate(406,391)"/>
<path d="M0 0 C1.65 0.33 3.3 0.66 5 1 C4.67 2.32 4.34 3.64 4 5 C2.35 4.67 0.7 4.34 -1 4 C-0.67 2.68 -0.34 1.36 0 0 Z " fill="#9E9E9E" transform="translate(368,236)"/>
<path d="M0 0 C0.33 0.99 0.66 1.98 1 3 C1.66 3 2.32 3 3 3 C3 3.66 3 4.32 3 5 C-0.3 5 -3.6 5 -7 5 C-6.67 4.34 -6.34 3.68 -6 3 C-4.02 3 -2.04 3 0 3 C0 2.01 0 1.02 0 0 Z " fill="#636363" transform="translate(306,228)"/>
<path d="M0 0 C0.99 0 1.98 0 3 0 C3.33 1.65 3.66 3.3 4 5 C2.68 5 1.36 5 0 5 C0 3.35 0 1.7 0 0 Z " fill="#818181" transform="translate(316,221)"/>
<path d="M0 0 C0 0.33 0 0.66 0 1 C-1.45463481 1.38909985 -2.91391207 1.76088029 -4.375 2.125 C-5.59316406 2.43824219 -5.59316406 2.43824219 -6.8359375 2.7578125 C-7.55007813 2.83773437 -8.26421875 2.91765625 -9 3 C-9.66 2.34 -10.32 1.68 -11 1 C-6.92630576 -1.03684712 -4.41062136 -1.0257259 0 0 Z " fill="#6F6F6F" transform="translate(328,210)"/>
<path d="M0 0 C0.66 0 1.32 0 2 0 C3.38938077 1.96147874 4.7260411 3.96166576 6 6 C5.67 6.66 5.34 7.32 5 8 C1.39345961 5.59563974 1.14547068 4.05320393 0 0 Z " fill="#F1F1F1" transform="translate(243,472)"/>
<path d="M0 0 C0.99 0.33 1.98 0.66 3 1 C1.02 3.97 1.02 3.97 -1 7 C-1.99 6.67 -2.98 6.34 -4 6 C-2.68 4.02 -1.36 2.04 0 0 Z " fill="#2D2D2D" transform="translate(373,225)"/>
<path d="M0 0 C4.75 0.75 4.75 0.75 7 3 C6.67 3.99 6.34 4.98 6 6 C3.97945196 4.35830472 1.97956942 2.69088222 0 1 C0 0.67 0 0.34 0 0 Z " fill="#575757" transform="translate(369,209)"/>
</svg>
